<svg width="16" height="14" viewBox="0 0 16 14" fill="none" xmlns="http://www.w3.org/2000/svg">
<path d="M3.2725 13.8333C3.15472 13.8333 3.05583 13.7933 2.97583 13.7133C2.89583 13.6333 2.85583 13.5342 2.85583 13.4158C2.85583 13.2975 2.89583 13.1986 2.97583 13.1192C3.05583 13.0397 3.15472 13 3.2725 13H12.7275C12.8458 13 12.9447 13.04 13.0242 13.12C13.1036 13.2 13.1436 13.2992 13.1442 13.4175C13.1447 13.5358 13.1047 13.6347 13.0242 13.7142C12.9436 13.7936 12.8447 13.8333 12.7275 13.8333H3.2725ZM3.92 11.43C3.59222 11.43 3.30667 11.3272 3.06333 11.1217C2.82 10.9161 2.66389 10.655 2.595 10.3383L1.6 5.0625C1.57222 5.07361 1.54111 5.07972 1.50667 5.08083C1.47167 5.0825 1.44028 5.08333 1.4125 5.08333C1.15083 5.08333 0.933333 4.99444 0.76 4.81667C0.586667 4.63889 0.5 4.42333 0.5 4.17C0.5 3.90722 0.586944 3.68389 0.760833 3.5C0.934167 3.31667 1.15194 3.225 1.41417 3.225C1.67639 3.225 1.89944 3.31667 2.08333 3.5C2.26667 3.68389 2.35833 3.90722 2.35833 4.17C2.35833 4.22778 2.35611 4.28139 2.35167 4.33083C2.34722 4.38028 2.33083 4.42917 2.3025 4.4775L4.6025 5.40333C4.70917 5.44611 4.81611 5.45167 4.92333 5.42C5.03 5.38778 5.12056 5.32361 5.195 5.2275L7.44667 2.1775C7.32611 2.09861 7.23056 1.99417 7.16 1.86417C7.08944 1.73472 7.05417 1.595 7.05417 1.445C7.05417 1.18278 7.14611 0.959722 7.33 0.775833C7.51333 0.591945 7.73639 0.5 7.99917 0.5C8.26139 0.5 8.48472 0.591667 8.66917 0.775C8.85361 0.958333 8.94583 1.18056 8.94583 1.44167C8.94583 1.59944 8.91056 1.74167 8.84 1.86833C8.76944 1.99611 8.67389 2.09917 8.55333 2.1775L10.805 5.2275C10.8794 5.32361 10.97 5.3875 11.0767 5.41917C11.1839 5.45194 11.2908 5.44694 11.3975 5.40417L13.6975 4.4775C13.6825 4.43306 13.6694 4.38444 13.6583 4.33167C13.6472 4.27833 13.6417 4.22444 13.6417 4.17C13.6417 3.90722 13.7283 3.68389 13.9017 3.5C14.075 3.31667 14.2928 3.225 14.555 3.225C14.8172 3.225 15.0403 3.31667 15.2242 3.5C15.4081 3.68389 15.5 3.90722 15.5 4.17C15.5 4.42222 15.4078 4.6375 15.2233 4.81583C15.0389 4.99417 14.815 5.08333 14.5517 5.08333C14.5306 5.08333 14.5067 5.08 14.48 5.07333C14.4533 5.06667 14.4239 5.06306 14.3917 5.0625L13.405 10.3375C13.3356 10.6553 13.1794 10.9167 12.9367 11.1217C12.6939 11.3267 12.4083 11.4294 12.08 11.43H3.92Z" fill="black"/>
</svg>
