<svg width="16" height="16" viewBox="0 0 16 16" fill="none"
    xmlns="http://www.w3.org/2000/svg">
    <path d="M15.36 0H0.64C0.286 0 0 0.286 0 0.64V15.36C0 15.714 0.286 16 0.64 16H15.36C15.714 16 16 15.714 16 15.36V0.64C16 0.286 15.714 0 15.36 0ZM14.56 14.56H1.44V1.44H14.56V14.56ZM3.856 8.24H4.87C4.944 8.24 5.006 8.18 5.006 8.104V6.526C5.006 6.132 5.324 5.814 5.716 5.814H9.83V6.882C9.83 6.996 9.96 7.058 10.048 6.988L12.23 5.274C12.3 5.22 12.3 5.114 12.23 5.06L10.048 3.346C9.96 3.276 9.83 3.34 9.83 3.452V4.52H5.714C4.612 4.52 3.72 5.416 3.72 6.522V8.1C3.72 8.18 3.78 8.24 3.856 8.24ZM3.772 10.938L5.954 12.652C6.042 12.722 6.172 12.658 6.172 12.546V11.478H10.286C11.388 11.478 12.28 10.582 12.28 9.476V7.898C12.28 7.824 12.22 7.762 12.144 7.762H11.13C11.056 7.762 10.994 7.822 10.994 7.898V9.476C10.994 9.87 10.676 10.188 10.284 10.188H6.172V9.12C6.172 9.006 6.042 8.944 5.954 9.014L3.772 10.728C3.702 10.778 3.702 10.884 3.772 10.938Z" fill="#7A44FF"/>
</svg>
