<svg width="24" height="24" viewBox="0 0 24 24" fill="none" xmlns="http://www.w3.org/2000/svg">
<path d="M5.3418 10.6198C5.60544 11.2131 6.00952 11.7333 6.51916 12.1355C7.0288 12.5377 7.62867 12.8098 8.26698 12.9283C8.90529 13.0468 9.56285 13.0081 10.1829 12.8157C10.8029 12.6232 11.3668 12.2828 11.8258 11.8236C12.2848 11.3645 12.6252 10.8006 12.8176 10.1805C13.0099 9.56045 13.0484 8.90288 12.9298 8.26459C12.8112 7.6263 12.539 7.02648 12.1367 6.51692C11.7344 6.00736 11.2141 5.60337 10.6208 5.33984M10.1657 6.59772C9.9547 7.47772 9.6407 8.35972 9.0007 8.99972C8.3607 9.63972 7.4797 9.95372 6.5987 10.1647C5.16926 10.5071 3.91521 11.3622 3.07448 12.5679C2.23376 13.7736 1.86486 15.2459 2.03777 16.7056C2.21068 18.1652 2.91338 19.5106 4.01254 20.4865C5.1117 21.4624 6.53084 22.0008 8.0007 21.9997C15.7327 21.9997 22.0007 15.7317 22.0007 7.99972C22.0018 6.52986 21.4634 5.11072 20.4875 4.01156C19.5116 2.91241 18.1662 2.20971 16.7065 2.03679C15.2469 1.86388 13.7745 2.23278 12.5688 3.07351C11.3632 3.91423 10.508 5.16828 10.1657 6.59772Z" stroke="#09090B" stroke-width="2" stroke-linecap="round" stroke-linejoin="round"/>
</svg>
