<svg width="24" height="24" viewBox="0 0 24 24" fill="none" xmlns="http://www.w3.org/2000/svg">
<path d="M9.0007 9.00024C8.3607 9.64024 7.4797 9.95424 6.5987 10.1652C5.16926 10.5076 3.91521 11.3627 3.07448 12.5684C2.23376 13.7741 1.86486 15.2464 2.03777 16.7061C2.21068 18.1657 2.91338 19.5111 4.01254 20.487C5.1117 21.4629 6.53084 22.0014 8.0007 22.0002C9.83958 22.0026 11.6608 21.6415 13.3597 20.9379C15.0587 20.2343 16.6019 19.202 17.9007 17.9002M10.7507 5.09331C11.3948 3.92924 12.4075 3.01223 13.6295 2.48647C14.8516 1.96072 16.2138 1.85602 17.5018 2.18886C18.7899 2.52169 19.9308 3.27318 20.7452 4.32516C21.5596 5.37714 22.0012 6.66994 22.0007 8.00031C22.0007 10.4113 21.3907 12.6803 20.3177 14.6603M5.3418 10.6203C5.60485 11.2144 6.00869 11.7356 6.51838 12.1386C7.02807 12.5416 7.62826 12.8144 8.26705 12.9333C8.90584 13.0523 9.56399 13.0138 10.1846 12.8213C10.8052 12.6288 11.3695 12.2879 11.8288 11.8283M10.6208 5.34131C11.5297 5.74528 12.2563 6.47223 12.6598 7.38131M2.00073 2.00024L22.0007 22.0002" stroke="#09090B" stroke-width="2" stroke-linecap="round" stroke-linejoin="round"/>
</svg>
