<svg width="24" height="24" viewBox="0 0 24 24" fill="none" xmlns="http://www.w3.org/2000/svg">
<path d="M10.2673 20.9998C10.4428 21.3038 10.6953 21.5562 10.9993 21.7317C11.3033 21.9073 11.6482 21.9997 11.9993 21.9997C12.3503 21.9997 12.6952 21.9073 12.9992 21.7317C13.3033 21.5562 13.5557 21.3038 13.7313 20.9998M14.9993 7.99976H20.9993M16.2423 3.75674C15.4032 2.91748 14.334 2.34592 13.17 2.11435C12.006 1.88278 10.7995 2.0016 9.70307 2.45579C8.60663 2.90997 7.6695 3.67912 7.01022 4.66595C6.35094 5.65277 5.99913 6.81295 5.99927 7.99974C5.99927 12.4987 4.58827 13.9557 3.26127 15.3257C3.13063 15.4689 3.04442 15.647 3.01312 15.8383C2.98183 16.0295 3.00679 16.2258 3.08498 16.4031C3.16316 16.5805 3.2912 16.7313 3.45352 16.8372C3.61585 16.9431 3.80545 16.9996 3.99927 16.9997H19.9993C20.1931 16.9998 20.3827 16.9436 20.5451 16.8379C20.7076 16.7321 20.8358 16.5815 20.9142 16.4043C20.9926 16.227 21.0178 16.0308 20.9867 15.8395C20.9557 15.6482 20.8697 15.4701 20.7393 15.3267C19.8221 14.3757 19.1158 13.2421 18.6663 11.9997" stroke="#09090B" stroke-width="2" stroke-linecap="round" stroke-linejoin="round"/>
</svg>
