<svg width="24" height="24" viewBox="0 0 24 24" fill="none" xmlns="http://www.w3.org/2000/svg">
<path d="M10.268 21.0002C10.4435 21.3043 10.696 21.5567 11 21.7322C11.3041 21.9078 11.6489 22.0002 12 22.0002C12.3511 22.0002 12.6959 21.9078 13 21.7322C13.304 21.5567 13.5565 21.3043 13.732 21.0002M17 17.0003H3.99999C3.80619 17.0004 3.61655 16.9441 3.45413 16.8384C3.2917 16.7327 3.1635 16.5821 3.0851 16.4048C3.00671 16.2276 2.9815 16.0314 3.01255 15.8401C3.0436 15.6488 3.12957 15.4706 3.25999 15.3273C4.58999 13.9563 5.99999 12.4993 5.99999 8.0003C5.99985 7.41011 6.08678 6.82312 6.25799 6.2583M2 2.00024L22 22.0002M8.66803 3.01023C9.57151 2.40692 10.6219 2.06023 11.707 2.00716C12.7921 1.9541 13.8712 2.19665 14.8293 2.70893C15.7873 3.22121 16.5883 3.984 17.1467 4.9159C17.7051 5.8478 18.0001 6.91383 18 8.00023C18 10.6872 18.77 12.6532 19.707 14.0502" stroke="#09090B" stroke-width="2" stroke-linecap="round" stroke-linejoin="round"/>
</svg>
