<svg width="24" height="24" viewBox="0 0 24 24" fill="none" xmlns="http://www.w3.org/2000/svg">
<path d="M10.2684 21.0002C10.4439 21.3043 10.6964 21.5567 11.0004 21.7322C11.3044 21.9078 11.6493 22.0002 12.0004 22.0002C12.3514 22.0002 12.6963 21.9078 13.0003 21.7322C13.3044 21.5567 13.5568 21.3043 13.7324 21.0002M15.0004 8.00024H21.0004M18.0004 5.00024V11.0002M20.0024 14.4643C20.2299 14.7672 20.4764 15.0554 20.7404 15.3273C20.8708 15.4706 20.9567 15.6488 20.9878 15.8401C21.0188 16.0314 20.9936 16.2276 20.9152 16.4048C20.8369 16.582 20.7086 16.7327 20.5462 16.8384C20.3838 16.9441 20.1942 17.0004 20.0004 17.0003H4.00036C3.80656 17.0004 3.61692 16.9441 3.45449 16.8384C3.29207 16.7327 3.16386 16.582 3.08547 16.4048C3.00707 16.2276 2.98187 16.0314 3.01292 15.8401C3.04397 15.6488 3.12993 15.4706 3.26036 15.3273C4.59036 13.9563 6.00036 12.4993 6.00036 8.0003C6.00048 6.97127 6.26524 5.95958 6.76921 5.06242C7.27319 4.16526 7.99943 3.41279 8.87815 2.87732C9.75687 2.34186 10.7585 2.04138 11.7869 2.00477C12.8153 1.96817 13.8358 2.19666 14.7504 2.6683" stroke="#09090B" stroke-width="2" stroke-linecap="round" stroke-linejoin="round"/>
</svg>
