<svg width="24" height="24" viewBox="0 0 24 24" fill="none" xmlns="http://www.w3.org/2000/svg">
<path d="M16 6.99976H16.01M3.4 17.9998H12C14.1217 17.9998 16.1566 17.157 17.6569 15.6567C19.1571 14.1564 20 12.1216 20 9.99982V6.99982M20 6.99982C20.0023 6.14773 19.7323 5.31719 19.2296 4.62921C18.7269 3.94124 18.0175 3.43178 17.205 3.17509C16.3925 2.91839 15.5193 2.92786 14.7125 3.20212C13.9058 3.47638 13.2077 4.0011 12.72 4.69982L2 19.9998M20 6.99982L22 7.49976L20 7.99976M10 17.9998V20.9998M14 17.7498V20.9998M7 17.9996C8.23312 17.9996 9.43627 17.6196 10.4457 16.9114C11.4552 16.2031 12.2219 15.2011 12.6416 14.0416C13.0612 12.8821 13.1134 11.6214 12.7911 10.4312C12.4687 9.24092 11.7874 8.17891 10.84 7.38965" stroke="#09090B" stroke-width="2" stroke-linecap="round" stroke-linejoin="round"/>
</svg>
