<svg width="24" height="24" viewBox="0 0 24 24" fill="none" xmlns="http://www.w3.org/2000/svg">
<path d="M14.3501 4.6498L16.3001 2.6998C16.7517 2.25036 17.3629 1.99805 18.0001 1.99805C18.6372 1.99805 19.2485 2.25036 19.7001 2.6998L21.3001 4.2998C21.5238 4.52277 21.7014 4.78771 21.8225 5.07944C21.9436 5.37116 22.006 5.68393 22.006 5.9998C22.006 6.31568 21.9436 6.62844 21.8225 6.92017C21.7014 7.21189 21.5238 7.47683 21.3001 7.6998L19.3501 9.6498M22 1.99976L20.5 3.49976M20 12.9998C20 17.9703 15.9706 21.9998 11 21.9998C6.02944 21.9998 2 17.9703 2 12.9998C2 8.02919 6.02944 3.99976 11 3.99976C15.9706 3.99976 20 8.02919 20 12.9998Z" stroke="#09090B" stroke-width="2" stroke-linecap="round" stroke-linejoin="round"/>
</svg>
