<svg width="24" height="24" viewBox="0 0 24 24" fill="none" xmlns="http://www.w3.org/2000/svg">
<path d="M17.5999 6.49976C17.8419 6.08034 17.9788 5.60857 17.9989 5.12476M6.00391 5.12476C6.02368 5.60849 6.16024 6.08025 6.40191 6.49976M3.47791 10.8958C3.66084 10.7468 3.85661 10.6142 4.06291 10.4998M19.9388 10.4998C20.1451 10.6142 20.3409 10.7468 20.5238 10.8958M6.00081 17.9996C5.31164 18 4.63408 17.8222 4.03381 17.4836M19.9679 17.4836C19.3676 17.8222 18.69 18 18.0009 17.9996M15.7009 10.3997L14.8009 10.7997M9.2009 13.1997L8.3009 13.5997M13.6008 15.6998L13.2008 14.7998M10.8009 9.1998L10.4009 8.2998M15.7009 13.4999L14.8009 13.0999M9.2009 10.8998L8.3009 10.4998M10.5009 15.6998L10.9009 14.7998M13.1008 9.1998L13.5008 8.2998M12.0008 4.9997C11.9997 4.60044 11.919 4.20541 11.7632 3.83777C11.6075 3.47013 11.38 3.13727 11.094 2.8587C10.808 2.58013 10.4692 2.36145 10.0976 2.21549C9.72597 2.06952 9.32895 1.9992 8.9298 2.00865C8.53065 2.0181 8.13741 2.10713 7.77311 2.27053C7.40882 2.43392 7.0808 2.66838 6.80829 2.96018C6.53578 3.25197 6.32425 3.59523 6.18611 3.96983C6.04797 4.34443 5.98599 4.74284 6.00381 5.1417C5.41601 5.29283 4.87031 5.57575 4.40804 5.96901C3.94577 6.36227 3.57905 6.85557 3.33565 7.41155C3.09225 7.96752 2.97857 8.57159 3.0032 9.17801C3.02782 9.78443 3.19013 10.3773 3.47781 10.9117C2.97199 11.3226 2.57423 11.8509 2.31915 12.4506C2.06406 13.0503 1.95936 13.7033 2.01417 14.3527C2.06898 15.0021 2.28162 15.6282 2.63361 16.1767C2.9856 16.7252 3.46627 17.1794 4.03381 17.4997C3.91026 18.4555 4.13598 19.4238 4.66944 20.2265C5.2029 21.0292 6.00823 21.6122 6.93732 21.8685C7.86641 22.1247 8.85677 22.0369 9.72627 21.6212C10.5958 21.2054 11.2859 20.4897 11.6698 19.6057C11.7406 19.4289 11.7955 19.2462 11.8338 19.0597C11.8618 18.9297 12.1398 18.9297 12.1688 19.0597C12.2068 19.2462 12.2613 19.4289 12.3318 19.6057C12.7157 20.4897 13.4058 21.2054 14.2753 21.6212C15.1448 22.0369 16.1352 22.1247 17.0643 21.8685C17.9934 21.6122 18.7987 21.0292 19.3322 20.2265C19.8656 19.4238 20.0914 18.4555 19.9678 17.4997C20.5353 17.1794 21.016 16.7252 21.368 16.1767C21.72 15.6282 21.9326 15.0021 21.9874 14.3527C22.0423 13.7033 21.9376 13.0503 21.6825 12.4506C21.4274 11.8509 21.0296 11.3226 20.5238 10.9117C20.8115 10.3773 20.9738 9.78443 20.9984 9.17801C21.023 8.57159 20.9094 7.96752 20.666 7.41155C20.4226 6.85557 20.0558 6.36227 19.5936 5.96901C19.1313 5.57575 18.5856 5.29283 17.9978 5.1417C18.0156 4.74284 17.9536 4.34443 17.8155 3.96983C17.6774 3.59523 17.4658 3.25197 17.1933 2.96018C16.9208 2.66838 16.5928 2.43392 16.2285 2.27053C15.8642 2.10713 15.471 2.0181 15.0718 2.00865C14.6727 1.9992 14.2756 2.06952 13.904 2.21549C13.5324 2.36145 13.1937 2.58013 12.9076 2.8587C12.6216 3.13727 12.3941 3.47013 12.2384 3.83777C12.0827 4.20541 12.0019 4.60044 12.0008 4.9997ZM15.0009 11.9998C15.0009 13.6566 13.6577 14.9998 12.0009 14.9998C10.344 14.9998 9.00085 13.6566 9.00085 11.9998C9.00085 10.3429 10.344 8.99976 12.0009 8.99976C13.6577 8.99976 15.0009 10.3429 15.0009 11.9998Z" stroke="#09090B" stroke-width="2" stroke-linecap="round" stroke-linejoin="round"/>
</svg>
