<svg width="24" height="24" viewBox="0 0 24 24" fill="none" xmlns="http://www.w3.org/2000/svg">
<path d="M12.0008 5.00005C12.002 4.60008 11.9232 4.20391 11.769 3.83485C11.6148 3.46579 11.3884 3.13128 11.1031 2.851C10.8177 2.57072 10.4792 2.35032 10.1075 2.20278C9.7357 2.05524 9.33819 1.98353 8.9383 1.99186C8.53842 2.0002 8.14424 2.08841 7.77894 2.25132C7.41365 2.41422 7.08462 2.64853 6.81121 2.94045C6.53779 3.23238 6.32552 3.57604 6.18686 3.9512C6.0482 4.32637 5.98596 4.72548 6.00381 5.12505M12.0008 5.00005V18M12.0008 5.00005C11.9996 4.60008 12.0785 4.20391 12.2327 3.83485C12.3868 3.46579 12.6133 3.13128 12.8986 2.851C13.1839 2.57072 13.5224 2.35032 13.8942 2.20278C14.266 2.05524 14.6635 1.98353 15.0634 1.99186C15.4633 2.0002 15.8574 2.08841 16.2227 2.25132C16.588 2.41422 16.9171 2.64853 17.1905 2.94045C17.4639 3.23238 17.6762 3.57604 17.8148 3.9512C17.9535 4.32637 18.0157 4.72548 17.9979 5.12505M6.00381 5.12505C5.41601 5.27619 4.87031 5.5591 4.40804 5.95236C3.94577 6.34562 3.57905 6.83892 3.33565 7.3949C3.09225 7.95087 2.97857 8.55494 3.0032 9.16136C3.02782 9.76778 3.19013 10.3606 3.47781 10.8951M6.00381 5.12505C6.02358 5.60878 6.16024 6.0805 6.40191 6.5M3.47781 10.8951C2.97199 11.306 2.57423 11.8343 2.31915 12.434C2.06406 13.0337 1.95936 13.6866 2.01417 14.336C2.06898 14.9854 2.28162 15.6116 2.63361 16.1601C2.9856 16.7085 3.46627 17.1627 4.03381 17.4831M3.47781 10.8951C3.66075 10.7461 3.85661 10.6145 4.06291 10.5M4.03381 17.4831C3.96372 18.0253 4.00555 18.5761 4.15669 19.1016C4.30784 19.627 4.5651 20.1159 4.91259 20.538C5.26008 20.9601 5.69042 21.3065 6.17703 21.5558C6.66364 21.8051 7.19618 21.952 7.74178 21.9874C8.28738 22.0228 8.83445 21.946 9.34919 21.7617C9.86394 21.5774 10.3354 21.2895 10.7346 20.9158C11.1337 20.5421 11.452 20.0906 11.6698 19.5891C11.8876 19.0876 12.0002 18.5468 12.0008 18M4.03381 17.4831C4.63407 17.8216 5.31164 18.0002 6.00081 17.9999M12.0008 18C12.0014 18.5468 12.1141 19.0876 12.3319 19.5891C12.5497 20.0906 12.868 20.5421 13.2671 20.9158C13.6662 21.2895 14.1377 21.5774 14.6525 21.7617C15.1672 21.946 15.7143 22.0228 16.2599 21.9874C16.8055 21.952 17.338 21.8051 17.8246 21.5558C18.3113 21.3065 18.7416 20.9601 19.0891 20.538C19.4366 20.1159 19.6938 19.627 19.845 19.1016C19.9961 18.5761 20.038 18.0253 19.9679 17.4831M17.9979 5.12505C18.5857 5.27619 19.1314 5.5591 19.5936 5.95236C20.0559 6.34562 20.4226 6.83892 20.666 7.3949C20.9094 7.95087 21.0231 8.55494 20.9985 9.16136C20.9739 9.76778 20.8115 10.3606 20.5239 10.8951M17.9979 5.12505C17.9778 5.60887 17.8419 6.08059 17.5999 6.5M20.5239 10.8951C21.0297 11.306 21.4274 11.8343 21.6825 12.434C21.9376 13.0337 22.0423 13.6866 21.9875 14.336C21.9327 14.9854 21.7201 15.6116 21.3681 16.1601C21.0161 16.7085 20.5354 17.1627 19.9679 17.4831M20.5239 10.8951C20.3409 10.7461 20.1451 10.6145 19.9388 10.5M19.9679 17.4831C19.3676 17.8216 18.69 18.0002 18.0009 17.9999M15.0009 13C14.1613 12.7047 13.4282 12.167 12.8942 11.455C12.3602 10.743 12.0493 9.88867 12.0009 9C11.9524 9.88867 11.6415 10.743 11.1075 11.455C10.5735 12.167 9.84041 12.7047 9.00085 13" stroke="#09090B" stroke-width="2" stroke-linecap="round" stroke-linejoin="round"/>
</svg>
