<svg width="24" height="24" viewBox="0 0 24 24" fill="none" xmlns="http://www.w3.org/2000/svg">
<path d="M6.00381 5.12505C5.98596 4.72548 6.0482 4.32637 6.18686 3.9512C6.32552 3.57604 6.53779 3.23238 6.81121 2.94045C7.08462 2.64853 7.41365 2.41422 7.77894 2.25132C8.14424 2.08841 8.53842 2.0002 8.9383 1.99186C9.33819 1.98353 9.7357 2.05524 10.1075 2.20278C10.4792 2.35032 10.8177 2.57072 11.1031 2.851C11.3884 3.13128 11.6148 3.46579 11.769 3.83485C11.9232 4.20391 12.002 4.60008 12.0008 5.00005V18M6.00381 5.12505C5.41601 5.27619 4.87031 5.5591 4.40804 5.95236C3.94577 6.34562 3.57905 6.83892 3.33565 7.3949C3.09225 7.95087 2.97857 8.55494 3.0032 9.16136C3.02782 9.76778 3.19013 10.3606 3.47781 10.8951M6.00381 5.12505C6.02358 5.60878 6.16024 6.0805 6.40191 6.5M3.47781 10.8951C2.97199 11.306 2.57423 11.8343 2.31915 12.434C2.06406 13.0337 1.95936 13.6866 2.01417 14.336C2.06898 14.9854 2.28162 15.6116 2.63361 16.1601C2.9856 16.7085 3.46627 17.1627 4.03381 17.4831M3.47781 10.8951C3.66075 10.7461 3.85661 10.6145 4.06291 10.5M4.03381 17.4831C3.96372 18.0253 4.00555 18.5761 4.15669 19.1016C4.30784 19.627 4.5651 20.1159 4.91259 20.538C5.26008 20.9601 5.69042 21.3065 6.17703 21.5558C6.66364 21.8051 7.19618 21.952 7.74178 21.9874C8.28738 22.0228 8.83445 21.946 9.34919 21.7617C9.86394 21.5774 10.3354 21.2895 10.7346 20.9158C11.1337 20.5421 11.452 20.0906 11.6698 19.5891C11.8876 19.0876 12.0002 18.5468 12.0008 18M4.03381 17.4831C4.63407 17.8216 5.31164 18.0002 6.00081 17.9999M12.0008 18L18.0009 18C18.5313 18 19.04 18.2107 19.4151 18.5858C19.7901 18.9609 20.0009 19.4696 20.0009 20V21M9.00085 13C9.84041 12.7047 10.5735 12.167 11.1075 11.455C11.6415 10.743 11.9524 9.88867 12.0009 9M12.0009 13H16.0009M12.0009 8H20.0009M16.0009 8V5C16.0009 4.46957 16.2116 3.96086 16.5866 3.58579C16.9617 3.21071 17.4704 3 18.0009 3M16.5009 13C16.5009 13.2761 16.277 13.5 16.0009 13.5C15.7247 13.5 15.5009 13.2761 15.5009 13C15.5009 12.7239 15.7247 12.5 16.0009 12.5C16.277 12.5 16.5009 12.7239 16.5009 13ZM18.5009 3C18.5009 3.27614 18.277 3.5 18.0009 3.5C17.7247 3.5 17.5009 3.27614 17.5009 3C17.5009 2.72386 17.7247 2.5 18.0009 2.5C18.277 2.5 18.5009 2.72386 18.5009 3ZM20.5009 21C20.5009 21.2761 20.277 21.5 20.0009 21.5C19.7247 21.5 19.5009 21.2761 19.5009 21C19.5009 20.7239 19.7247 20.5 20.0009 20.5C20.277 20.5 20.5009 20.7239 20.5009 21ZM20.5009 8C20.5009 8.27614 20.277 8.5 20.0009 8.5C19.7247 8.5 19.5009 8.27614 19.5009 8C19.5009 7.72386 19.7247 7.5 20.0009 7.5C20.277 7.5 20.5009 7.72386 20.5009 8Z" stroke="#09090B" stroke-width="2" stroke-linecap="round" stroke-linejoin="round"/>
</svg>
