<svg width="24" height="24" viewBox="0 0 24 24" fill="none" xmlns="http://www.w3.org/2000/svg">
<path d="M8.00049 13.9998V14.4998M16.0005 13.9998V14.4998M12.0006 4.99978C12.6706 4.99978 13.3506 5.08978 14.0006 5.25978C15.7806 3.25978 19.0306 2.41978 20.4206 2.99978C21.8206 3.57978 20.0006 9.99978 20.0006 9.99978C20.5706 11.0698 21.0006 12.2398 21.0006 13.4398C21.0006 17.8998 16.9706 20.9998 12.0006 20.9998C7.03057 20.9998 3.00057 17.9998 3.00057 13.4398C3.00057 12.1898 3.50057 11.0398 4.00057 9.99978C4.00057 9.99978 2.11057 3.57978 3.50057 2.99978C4.89057 2.41978 8.22057 3.22978 10.0006 5.22978C10.6566 5.07888 11.3274 5.00174 12.0006 4.99978ZM11.2505 16.2498H12.7505L12.0005 16.9998L11.2505 16.2498Z" stroke="#09090B" stroke-width="2" stroke-linecap="round" stroke-linejoin="round"/>
</svg>
