<svg width="24" height="24" viewBox="0 0 24 24" fill="none" xmlns="http://www.w3.org/2000/svg">
<path d="M16.7499 11.9998H20.3819C20.5523 11.9998 20.7198 12.0435 20.8686 12.1265C21.0174 12.2095 21.1425 12.3292 21.2321 12.4742C21.3217 12.6191 21.3727 12.7845 21.3804 12.9548C21.388 13.125 21.3521 13.2943 21.2759 13.4468L19.2419 17.5158C19.1648 17.6699 19.0491 17.8016 18.9061 17.8979C18.7631 17.9942 18.5976 18.0518 18.4258 18.0653C18.2539 18.0788 18.0815 18.0476 17.9252 17.9748C17.7689 17.902 17.6341 17.79 17.5339 17.6498L15.4099 14.6798M2 18.9998H5.76C6.13273 19.0023 6.49877 18.9007 6.81682 18.7064C7.13487 18.512 7.39228 18.2326 7.56 17.8998L9 14.9998M2 20.9998V16.9998M7 8.99976H7.01M17.1061 9.05267C17.3431 9.17132 17.5233 9.37921 17.6071 9.63066C17.6909 9.88211 17.6715 10.1565 17.5531 10.3937L14.4471 16.6047C14.3883 16.7222 14.307 16.8269 14.2078 16.913C14.1085 16.999 13.9933 17.0647 13.8687 17.1062C13.7441 17.1477 13.6125 17.1642 13.4815 17.1549C13.3504 17.1455 13.2225 17.1105 13.1051 17.0517L3.61008 12.2997C2.92042 11.9523 2.39644 11.3459 2.1528 10.6131C1.90917 9.8803 1.96572 9.08085 2.31008 8.38967L3.69008 5.59967C3.86208 5.25689 4.09992 4.95135 4.39002 4.70051C4.68012 4.44966 5.01679 4.25841 5.3808 4.13769C5.74482 4.01697 6.12905 3.96914 6.51155 3.99694C6.89406 4.02473 7.26734 4.1276 7.61008 4.29967L17.1061 9.05267Z" stroke="#09090B" stroke-width="2" stroke-linecap="round" stroke-linejoin="round"/>
</svg>
