<svg width="24" height="24" viewBox="0 0 24 24" fill="none" xmlns="http://www.w3.org/2000/svg">
<path d="M21.2104 15.8901C20.5742 17.3946 19.5792 18.7203 18.3123 19.7514C17.0454 20.7825 15.5452 21.4875 13.9428 21.8049C12.3405 22.1222 10.6848 22.0422 9.12055 21.5719C7.55627 21.1015 6.13103 20.2551 4.96942 19.1067C3.80782 17.9583 2.94522 16.5428 2.45704 14.984C1.96886 13.4252 1.86996 11.7706 2.169 10.1647C2.46804 8.55886 3.1559 7.05071 4.17245 5.77211C5.189 4.49351 6.50329 3.4834 8.0004 2.83008M21.0005 11.9999C21.5525 11.9999 22.0055 11.5509 21.9505 11.0019C21.7199 8.70609 20.7025 6.56062 19.0708 4.92924C17.439 3.29786 15.2933 2.28096 12.9975 2.05092C12.4475 1.99592 11.9995 2.44892 11.9995 3.00092V11.0009C11.9995 11.2661 12.1048 11.5205 12.2923 11.708C12.4799 11.8956 12.7342 12.0009 12.9995 12.0009L21.0005 11.9999Z" stroke="#09090B" stroke-width="2" stroke-linecap="round" stroke-linejoin="round"/>
</svg>
