<svg width="24" height="24" viewBox="0 0 24 24" fill="none" xmlns="http://www.w3.org/2000/svg">
<path d="M10 9.00024H14M12 7.00024V12.0002M14 22.0002V18.0002C14 17.4698 13.7893 16.9611 13.4142 16.586C13.0391 16.211 12.5304 16.0002 12 16.0002C11.4696 16.0002 10.9609 16.211 10.5858 16.586C10.2107 16.9611 10 17.4698 10 18.0002V22.0002M18 22.0003V5.61826C17.9999 5.4326 17.9481 5.25063 17.8504 5.09273C17.7528 4.93484 17.6131 4.80725 17.447 4.72426L12.894 2.44726C12.6164 2.30854 12.3103 2.23633 12 2.23633C11.6897 2.23633 11.3836 2.30854 11.106 2.44726L6.553 4.72426C6.38692 4.80725 6.24722 4.93484 6.14955 5.09273C6.05188 5.25063 6.0001 5.4326 6 5.61826V22.0003M18 7.00024L21.447 8.72424C21.6131 8.80723 21.7528 8.93482 21.8504 9.09272C21.9481 9.25061 21.9999 9.43258 22 9.61824V20.0002C22 20.5307 21.7893 21.0394 21.4142 21.4145C21.0391 21.7895 20.5304 22.0002 20 22.0002H4C3.46957 22.0002 2.96086 21.7895 2.58579 21.4145C2.21071 21.0394 2 20.5307 2 20.0002V9.61824C2.0001 9.43258 2.05188 9.25061 2.14955 9.09272C2.24722 8.93482 2.38692 8.80723 2.553 8.72424L6 7.00024" stroke="#09090B" stroke-width="2" stroke-linecap="round" stroke-linejoin="round"/>
</svg>
