<svg width="24" height="24" viewBox="0 0 24 24" fill="none" xmlns="http://www.w3.org/2000/svg">
<path d="M2.00092 2L22.0009 22M8.35089 2.6899C10.1615 1.98272 12.139 1.81858 14.0414 2.21754C15.9439 2.61651 17.6888 3.56128 19.0628 4.9363C20.4367 6.31133 21.3801 8.05698 21.7776 9.95972C22.1751 11.8625 22.0095 13.8398 21.3009 15.6499M19.0809 19.0799C18.1512 20.0097 17.0474 20.7472 15.8326 21.2504C14.6178 21.7536 13.3158 22.0126 12.0009 22.0126C10.686 22.0126 9.38403 21.7536 8.16924 21.2504C6.95446 20.7472 5.85067 20.0097 4.92091 19.0799C3.99115 18.1502 3.25363 17.0464 2.75045 15.8316C2.24727 14.6168 1.98828 13.3148 1.98828 11.9999C1.98828 10.685 2.24727 9.38304 2.75045 8.16825C3.25363 6.95346 3.99115 5.84968 4.92091 4.91992" stroke="#09090B" stroke-width="2" stroke-linecap="round" stroke-linejoin="round"/>
</svg>
