<svg width="24" height="24" viewBox="0 0 24 24" fill="none" xmlns="http://www.w3.org/2000/svg">
<path d="M19.6492 15.6598C18.1354 17.0955 16.1207 17.883 14.0346 17.8545C11.9485 17.8259 9.95611 16.9836 8.48219 15.5071C7.00827 14.0306 6.16946 12.0367 6.14461 9.95051C6.11976 7.86438 6.91084 5.85106 8.34917 4.33984M13.9991 9.99976L8.49915 15.4998M13.9991 9.99976L13.9992 17.8498M13.9991 9.99976H6.14917M21.6592 17.6696C21.7683 17.7736 21.8545 17.8993 21.9121 18.0386C21.9698 18.178 21.9976 18.3278 21.9938 18.4785C21.9901 18.6292 21.9548 18.7775 21.8903 18.9137C21.8257 19.05 21.7334 19.1712 21.6192 19.2696C19.3166 21.162 16.3922 22.1298 13.4154 21.9846C10.4385 21.8394 7.6222 20.5916 5.51473 18.4841C3.40726 16.3766 2.15947 13.5603 2.01426 10.5835C1.86906 7.60659 2.83684 4.68221 4.72919 2.37964C4.82936 2.2665 4.95175 2.17521 5.08876 2.11146C5.22576 2.04772 5.37443 2.01288 5.52548 2.00913C5.67654 2.00538 5.82676 2.03279 5.96676 2.08965C6.10675 2.14651 6.23354 2.23161 6.33919 2.33964L21.6592 17.6696Z" stroke="#09090B" stroke-width="2" stroke-linecap="round" stroke-linejoin="round"/>
</svg>
