<svg width="24" height="24" viewBox="0 0 24 24" fill="none" xmlns="http://www.w3.org/2000/svg">
<path d="M13.2283 21.9253C11.1991 22.1764 9.14173 21.7995 7.33336 20.8453C5.52499 19.8911 4.05256 18.4056 3.11451 16.5888C2.17646 14.772 1.81786 12.7113 2.08705 10.6845C2.35624 8.65759 3.24027 6.76194 4.62001 5.25298C5.99975 3.74401 7.80889 2.69426 9.80362 2.24517C11.7984 1.79608 13.8828 1.96925 15.7761 2.74133C17.6694 3.51342 19.2805 4.84732 20.3923 6.56327C21.5042 8.27922 22.0633 10.2948 21.9943 12.3383M12.0002 6.00024V12.0002L13.5622 12.7812M14.0002 18.0002L18.0002 14.0002M18.0002 14.0002L22.0002 18.0002M18.0002 14.0002V22.0002" stroke="#09090B" stroke-width="2" stroke-linecap="round" stroke-linejoin="round"/>
</svg>
