<svg width="24" height="24" viewBox="0 0 24 24" fill="none" xmlns="http://www.w3.org/2000/svg">
<path d="M12.3374 21.9943C10.2939 22.0633 8.27844 21.5042 6.56249 20.3925C4.84654 19.2807 3.51263 17.6697 2.74049 15.7764C1.96835 13.8832 1.7951 11.7988 2.24409 9.80407C2.69308 7.80935 3.74272 6.00019 5.25158 4.62039C6.76044 3.24059 8.65599 2.35646 10.6828 2.08714C12.7096 1.81782 14.7703 2.17626 16.5871 3.11415C18.4039 4.05204 19.8896 5.52431 20.8439 7.33256C21.7982 9.14082 22.1753 11.1981 21.9244 13.2273M11.9995 6.00024V12.0002L13.9995 13.0002M13.9995 18.0002L17.9995 22.0002M17.9995 22.0002L21.9995 18.0002M17.9995 22.0002V14.0002" stroke="#09090B" stroke-width="2" stroke-linecap="round" stroke-linejoin="round"/>
</svg>
