<svg width="24" height="24" viewBox="0 0 24 24" fill="none" xmlns="http://www.w3.org/2000/svg">
<path d="M11.9993 5.99976V11.9998L15.9993 13.9998M15.9993 21.1598C14.2019 21.9451 12.2132 22.1843 10.2808 21.8479C8.34845 21.5115 6.55768 20.6142 5.13139 19.2677C3.7051 17.9212 2.70629 16.185 2.25926 14.2752C1.81224 12.3653 1.93674 10.3662 2.61727 8.52657C3.2978 6.68696 4.50431 5.08809 6.08664 3.92898C7.66897 2.76987 9.55724 2.10169 11.5164 2.00761C13.4756 1.91352 15.4192 2.39769 17.1054 3.39985C18.7915 4.40201 20.1456 5.8779 20.9993 7.64384M19.9993 11.4998V17.4998M19.9993 21.4998H20.0093" stroke="#09090B" stroke-width="2" stroke-linecap="round" stroke-linejoin="round"/>
</svg>
