<svg width="24" height="24" viewBox="0 0 24 24" fill="none" xmlns="http://www.w3.org/2000/svg">
<path d="M12 11.9998V15.9998M12 19.9998H12.01M17 17.9996H17.5C18.6935 17.9996 19.8381 17.5255 20.682 16.6816C21.5259 15.8377 22 14.6931 22 13.4996C22 12.3062 21.5259 11.1616 20.682 10.3177C19.8381 9.47374 18.6935 8.99964 17.5 8.99964H15.71C15.3637 7.83811 14.7216 6.78642 13.8468 5.94752C12.9719 5.10862 11.8943 4.51126 10.7192 4.21391C9.54419 3.91656 8.31208 3.92941 7.1435 4.25121C5.97493 4.57301 4.90994 5.19272 4.05277 6.04968C3.19561 6.90665 2.57565 7.9715 2.25359 9.14C1.93153 10.3085 1.91839 11.5406 2.21547 12.7157C2.51255 13.8908 3.10966 14.9686 3.94836 15.8437C4.78706 16.7187 5.8386 17.361 7.00005 17.7076" stroke="#09090B" stroke-width="2" stroke-linecap="round" stroke-linejoin="round"/>
</svg>
