<svg width="24" height="24" viewBox="0 0 24 24" fill="none" xmlns="http://www.w3.org/2000/svg">
<path d="M10.1885 8.5C10.5212 7.21165 11.2727 6.07042 12.3248 5.25581C13.3769 4.4412 14.6699 3.99944 16.0005 4C15.2049 4.79565 14.7579 5.87478 14.7579 7C14.7579 7.55715 14.8676 8.10885 15.0808 8.62359C15.2941 9.13833 15.6066 9.60603 16.0005 10C16.3945 10.394 16.8622 10.7065 17.3769 10.9197C17.8917 11.1329 18.4434 11.2426 19.0005 11.2426C20.1258 11.2426 21.2049 10.7956 22.0005 10C22.0007 11.0534 21.7235 12.0882 21.1969 13.0005C20.6703 13.9128 19.9128 14.6703 19.0005 15.197M11.0005 20V22M3.00055 20.0001C2.55109 19.4002 2.24225 18.707 2.09688 17.9716C1.95151 17.2363 1.97334 16.4777 2.16073 15.7519C2.34813 15.0261 2.69631 14.3518 3.17951 13.7788C3.66271 13.2057 4.26857 12.7487 4.95226 12.4414C5.63595 12.1341 6.37998 11.9845 7.12931 12.0036C7.87864 12.0227 8.61408 12.21 9.28124 12.5517C9.9484 12.8934 10.5302 13.3807 10.9836 13.9776C11.437 14.5745 11.7504 15.2657 11.9005 16.0001H13.0006C13.609 15.9992 14.2033 16.1833 14.7047 16.5281C15.2061 16.8728 15.5908 17.3619 15.8077 17.9303C16.0247 18.4988 16.0637 19.1198 15.9195 19.7109C15.7754 20.302 15.4549 20.8353 15.0006 21.2401M7.00055 19V21" stroke="#09090B" stroke-width="2" stroke-linecap="round" stroke-linejoin="round"/>
</svg>
