<svg width="24" height="24" viewBox="0 0 24 24" fill="none" xmlns="http://www.w3.org/2000/svg">
<path d="M22.0001 9.99981C22.0001 9.20417 21.684 8.4411 21.1214 7.87849C20.5588 7.31589 19.7957 6.99982 19.0001 6.99982H16.7931C16.4538 5.80614 15.721 4.76221 14.7136 4.03754C13.7062 3.31287 12.4835 2.95004 11.2439 3.00795C10.0043 3.06587 8.82068 3.54113 7.88525 4.35656C6.94983 5.172 6.31754 6.27971 6.09106 7.49981M17.5002 20.9998H9.00016C7.70202 20.9994 6.42955 20.6381 5.32494 19.9562C4.22032 19.2743 3.32708 18.2987 2.74503 17.1384C2.16298 15.978 1.91505 14.6787 2.02895 13.3856C2.14285 12.0924 2.61409 10.8565 3.39001 9.81574C4.16593 8.77501 5.21596 7.97055 6.42276 7.49224C7.62957 7.01394 8.9456 6.88063 10.2238 7.10722C11.502 7.33381 12.692 7.91137 13.6609 8.77536C14.6297 9.63935 15.3393 10.7557 15.7102 11.9998H17.5002C18.0911 11.9998 18.6763 12.1162 19.2222 12.3423C19.7682 12.5684 20.2643 12.8999 20.6821 13.3178C21.1 13.7356 21.4315 14.2317 21.6576 14.7777C21.8838 15.3236 22.0002 15.9088 22.0002 16.4998C22.0002 17.0907 21.8838 17.6759 21.6576 18.2218C21.4315 18.7678 21.1 19.2639 20.6821 19.6817C20.2643 20.0996 19.7682 20.4311 19.2222 20.6572C18.6763 20.8834 18.0911 20.9998 17.5002 20.9998Z" stroke="#09090B" stroke-width="2" stroke-linecap="round" stroke-linejoin="round"/>
</svg>
