<svg width="24" height="24" viewBox="0 0 24 24" fill="none" xmlns="http://www.w3.org/2000/svg">
<path d="M10.187 8.5C10.5197 7.21165 11.2711 6.07042 12.3233 5.25581C13.3754 4.4412 14.6684 3.99944 15.999 4C15.2034 4.79565 14.7564 5.87478 14.7564 7C14.7564 7.55715 14.8661 8.10885 15.0793 8.62359C15.2925 9.13833 15.605 9.60603 15.999 10C16.393 10.394 16.8607 10.7065 17.3754 10.9197C17.8902 11.1329 18.4419 11.2426 18.999 11.2426C20.1242 11.2426 21.2034 10.7956 21.999 10C21.9992 11.0534 21.722 12.0882 21.1954 13.0005C20.6688 13.9128 19.9113 14.6703 18.999 15.197M12.999 16C13.7946 16 14.5577 16.3161 15.1203 16.8787C15.6829 17.4413 15.999 18.2044 15.999 19C15.999 19.7956 15.6829 20.5587 15.1203 21.1213C14.5577 21.6839 13.7946 22 12.999 22H6.99898C6.05295 21.9998 5.12639 21.7312 4.32691 21.2255C3.52742 20.7197 2.88783 19.9975 2.48241 19.1427C2.07699 18.288 1.92238 17.3358 2.03654 16.3966C2.1507 15.4575 2.52895 14.5701 3.12734 13.8373C3.72574 13.1046 4.51973 12.5567 5.4171 12.2572C6.31448 11.9577 7.2784 11.9189 8.19692 12.1454C9.11545 12.3718 9.95088 12.8542 10.6062 13.5366C11.2615 14.2189 11.7098 15.0731 11.899 16H12.999Z" stroke="#09090B" stroke-width="2" stroke-linecap="round" stroke-linejoin="round"/>
</svg>
