<svg width="24" height="24" viewBox="0 0 24 24" fill="none" xmlns="http://www.w3.org/2000/svg">
<path d="M5.99936 16.3263C4.94559 15.8259 4.03358 15.0701 3.34622 14.1276C2.65886 13.1851 2.21794 12.0857 2.06354 10.9294C1.90914 9.77315 2.04616 8.59662 2.46214 7.50678C2.87812 6.41693 3.55987 5.44832 4.44542 4.68898C5.33098 3.92965 6.39227 3.40366 7.53282 3.15883C8.67338 2.91401 9.85703 2.9581 10.9762 3.2871C12.0954 3.61611 13.1146 4.2196 13.9412 5.04271C14.7678 5.86583 15.3756 6.88248 15.7094 8.00025H17.4994C18.6508 7.99824 19.7593 8.43773 20.5966 9.22825C21.4338 10.0188 21.9362 11.1002 22.0002 12.2499C22.0643 13.3996 21.6852 14.5301 20.941 15.4088C20.1967 16.2874 19.1439 16.8473 17.9994 16.9733M12.9994 12.0002L9.99939 17.0002H13.9994L10.9994 22.0002" stroke="#09090B" stroke-width="2" stroke-linecap="round" stroke-linejoin="round"/>
</svg>
