<svg width="24" height="24" viewBox="0 0 24 24" fill="none" xmlns="http://www.w3.org/2000/svg">
<path d="M16.17 7.83032L2 22.0003M16.17 7.83032C16.4398 7.56015 16.652 7.23811 16.794 6.88368C16.9359 6.52924 17.0045 6.14974 16.9958 5.76805C16.987 5.38636 16.901 5.0104 16.743 4.66284C16.585 4.31528 16.3582 4.00334 16.0764 3.74581C15.7945 3.48829 15.4634 3.29052 15.1031 3.16445C14.7427 3.03837 14.3605 2.9866 13.9796 3.01225C13.5987 3.0379 13.2269 3.14044 12.8867 3.31369C12.5464 3.48694 12.2448 3.72731 12.0001 4.0203C11.7553 3.72731 11.4537 3.48694 11.1135 3.31369C10.7732 3.14044 10.4015 3.0379 10.0205 3.01225C9.6396 2.9866 9.25743 3.03837 8.89706 3.16445C8.53668 3.29052 8.20558 3.48829 7.92372 3.74581C7.64187 4.00334 7.41509 4.31528 7.25708 4.66284C7.09907 5.0104 7.01309 5.38636 7.00434 5.76805C6.99559 6.14974 7.06424 6.52924 7.20615 6.88368C7.34806 7.23811 7.5603 7.56013 7.83006 7.8303M16.17 7.83032C16.4402 7.56057 16.7622 7.34831 17.1167 7.20639C17.4711 7.06448 17.8506 6.99583 18.2323 7.00458C18.614 7.01334 18.99 7.09931 19.3375 7.25732C19.6851 7.41534 19.997 7.64211 20.2545 7.92397C20.5121 8.20583 20.7098 8.53693 20.8359 8.8973C20.962 9.25767 21.0138 9.63985 20.9881 10.0208C20.9625 10.4017 20.8599 10.7735 20.6867 11.1137C20.5134 11.4539 20.273 11.7555 19.9801 12.0003C20.273 12.2451 20.5134 12.5467 20.6867 12.8869C20.8599 13.2271 20.9625 13.5989 20.9881 13.9798C21.0138 14.3608 20.962 14.7429 20.8359 15.1033C20.7098 15.4637 20.5121 15.7948 20.2545 16.0766C19.997 16.3585 19.6851 16.5853 19.3375 16.7433C18.99 16.9013 18.614 16.9873 18.2323 16.996C17.8506 17.0048 17.4711 16.9361 17.1167 16.7942C16.7622 16.6523 16.4402 16.4401 16.1701 16.1703M4.02006 12.0003C3.72707 11.7555 3.4867 11.4539 3.31345 11.1137C3.1402 10.7735 3.03765 10.4017 3.012 10.0208C2.98635 9.63985 3.03813 9.25767 3.1642 8.8973C3.29028 8.53693 3.48804 8.20583 3.74557 7.92397C4.00309 7.64211 4.31504 7.41534 4.6626 7.25732C5.01015 7.09931 5.38611 7.01334 5.7678 7.00458C6.14949 6.99583 6.529 7.06448 6.88343 7.20639C7.23787 7.34831 7.55988 7.56054 7.83006 7.8303M7.83006 7.8303L16.1701 16.1703M16.1701 16.1703C16.4398 16.4405 16.652 16.7625 16.794 17.1169C16.9359 17.4714 17.0045 17.8509 16.9958 18.2326C16.987 18.6142 16.901 18.9902 16.743 19.3378C16.585 19.6853 16.3582 19.9973 16.0764 20.2548C15.7945 20.5123 15.4634 20.7101 15.1031 20.8362C14.7427 20.9622 14.3605 21.014 13.9796 20.9884C13.5987 20.9627 13.2269 20.8602 12.8867 20.6869C12.5464 20.5137 12.2448 20.2733 12.0001 19.9803C11.7553 20.2733 11.4537 20.5137 11.1135 20.6869C10.7732 20.8602 10.4015 20.9627 10.0205 20.9884C9.6396 21.014 9.25743 20.9622 8.89706 20.8362C8.53668 20.7101 8.20558 20.5123 7.92372 20.2548C7.64187 19.9973 7.41509 19.6853 7.25708 19.3378C7.09907 18.9902 7.01309 18.6142 7.00434 18.2326C6.99559 17.8509 7.06424 17.4714 7.20615 17.1169C7.34806 16.7625 7.5603 16.4405 7.83006 16.1703C7.27708 16.6782 6.54499 16.9456 5.79485 16.9137C5.0447 16.8818 4.33795 16.5533 3.83006 16.0003C3.32217 15.4473 3.05475 14.7152 3.08663 13.9651C3.11851 13.2149 3.44708 12.5082 4.00006 12.0003" stroke="#09090B" stroke-width="2" stroke-linecap="round" stroke-linejoin="round"/>
</svg>
