<svg width="24" height="24" viewBox="0 0 24 24" fill="none" xmlns="http://www.w3.org/2000/svg">
<path d="M11.9994 17.6598C11.4748 18.4049 10.7733 19.0081 9.95791 19.415C9.14253 19.8219 8.23881 20.0199 7.32798 19.9911C6.41715 19.9622 5.52775 19.7075 4.73973 19.2499C3.9517 18.7922 3.28975 18.1459 2.81335 17.369C2.33696 16.5922 2.06106 15.7092 2.01044 14.7993C1.95983 13.8894 2.13609 12.9812 2.52339 12.1563C2.91069 11.3314 3.49688 10.6157 4.22928 10.0734C4.96169 9.53119 5.81735 9.17943 6.71936 9.04977C6.48029 8.23007 6.43534 7.36597 6.58808 6.5259C6.74082 5.68582 7.08705 4.89284 7.59936 4.20977C8.11167 3.52669 8.77598 2.97227 9.53969 2.59042C10.3034 2.20856 11.1455 2.00977 11.9994 2.00977C12.8532 2.00977 13.6953 2.20856 14.459 2.59042C15.2227 2.97227 15.8871 3.52669 16.3994 4.20977C16.9117 4.89284 17.2579 5.68582 17.4106 6.5259C17.5634 7.36597 17.5184 8.23007 17.2794 9.04977V9.05977C18.1825 9.18827 19.0394 9.53937 19.7731 10.0815C20.5067 10.6236 21.094 11.3396 21.4821 12.1651C21.8701 12.9907 22.0468 13.8998 21.9961 14.8106C21.9454 15.7213 21.669 16.6052 21.1917 17.3826C20.7144 18.16 20.0513 18.8064 19.262 19.2638C18.4727 19.7211 17.5821 19.9749 16.6703 20.0024C15.7586 20.0299 14.8543 19.8302 14.0389 19.4212C13.2235 19.0123 12.5226 18.407 11.9994 17.6598ZM11.9994 17.6598L11.9994 21.9997" stroke="#09090B" stroke-width="2" stroke-linecap="round" stroke-linejoin="round"/>
</svg>
