<svg width="24" height="24" viewBox="0 0 24 24" fill="none" xmlns="http://www.w3.org/2000/svg">
<path d="M10 9.29998C9.39317 9.02218 8.70707 8.97028 8.06534 9.15363C7.42362 9.33698 6.8685 9.74352 6.50001 10.3C6.16877 10.8051 5.99231 11.3959 5.99231 12C5.99231 12.604 6.16877 13.1949 6.50001 13.7C6.85361 14.2731 7.40863 14.6934 8.05616 14.8785C8.7037 15.0635 9.397 14.9998 10 14.7M17 9.29998C16.3932 9.02218 15.7071 8.97028 15.0653 9.15363C14.4236 9.33698 13.8685 9.74352 13.5 10.3C13.1688 10.8051 12.9923 11.3959 12.9923 12C12.9923 12.604 13.1688 13.1949 13.5 13.7C13.8536 14.2731 14.4086 14.6934 15.0562 14.8785C15.7037 15.0635 16.397 14.9998 17 14.7M22 12C22 17.5228 17.5228 22 12 22C6.47715 22 2 17.5228 2 12C2 6.47715 6.47715 2 12 2C17.5228 2 22 6.47715 22 12Z" stroke="#09090B" stroke-width="2" stroke-linecap="round" stroke-linejoin="round"/>
</svg>
