<svg width="24" height="24" viewBox="0 0 24 24" fill="none" xmlns="http://www.w3.org/2000/svg">
<path d="M10.5 9.5L9.5 7.21C9.2 6.48 8.8 6 8 6M8 6H4.5C2.79 6 2 6.5 2 8.5C2.08384 10.2938 2.7912 12.002 4 13.33M8 6C8 4.45 8.24 2 6 2C4 2 3.5 4.17 3.5 6M14.5 13.5L16.79 14.5C17.52 14.8 18 15.2 18 16M18 16V19.5C18 21.21 17.5 22 15.5 22C13.7063 21.9162 11.998 21.2088 10.67 20M18 16C19.55 16 22 15.7599 22 17.9999C22 19.9999 19.83 20.4999 18 20.4999M4.60004 13.1101L10.39 9.90008C12.28 8.85008 15.18 11.6801 14.1 13.6101L10.88 19.4201C8.80004 23.1601 0.790037 15.2301 4.60004 13.1101Z" stroke="#09090B" stroke-width="2" stroke-linecap="round" stroke-linejoin="round"/>
</svg>
