<svg width="24" height="24" viewBox="0 0 24 24" fill="none" xmlns="http://www.w3.org/2000/svg">
<path d="M21.0001 5C21.0001 6.65685 16.9707 8 12.0001 8C7.02956 8 3.00012 6.65685 3.00012 5M21.0001 5C21.0001 3.34315 16.9707 2 12.0001 2C7.02956 2 3.00012 3.34315 3.00012 5M21.0001 5V8M3.00012 5L3.00007 19C2.9945 19.4809 3.33587 19.9552 3.9954 20.383C4.65493 20.8107 5.61329 21.1793 6.7897 21.4577C7.96611 21.7361 9.32608 21.9162 10.755 21.9827C12.1839 22.0493 13.6398 22.0003 15.0001 21.84M21.0001 12L18.0001 17H22.0001L19.0001 22M3.00012 12C3.00157 12.4675 3.33081 12.9285 3.96158 13.3461C4.59235 13.7636 5.50718 14.1263 6.63309 14.4051C7.75899 14.6839 9.06481 14.8711 10.4463 14.9519C11.8279 15.0326 13.2469 15.0045 14.5901 14.87" stroke="#09090B" stroke-width="2" stroke-linecap="round" stroke-linejoin="round"/>
</svg>
