<svg width="24" height="24" viewBox="0 0 24 24" fill="none" xmlns="http://www.w3.org/2000/svg">
<path d="M9.19897 9.19971H9.20897M14.499 9.49976L9.49902 14.4998M14.699 14.7998H14.709M2.69893 10.2997C2.47488 10.5235 2.29714 10.7893 2.17587 11.0818C2.05461 11.3744 1.99219 11.688 1.99219 12.0047C1.99219 12.3214 2.05461 12.635 2.17587 12.9275C2.29714 13.2201 2.47488 13.4859 2.69893 13.7097L10.2889 21.2997C10.5128 21.5237 10.7785 21.7015 11.0711 21.8227C11.3637 21.944 11.6772 22.0064 11.9939 22.0064C12.3106 22.0064 12.6242 21.944 12.9168 21.8227C13.2093 21.7015 13.4751 21.5237 13.6989 21.2997L21.2889 13.7097C21.513 13.4859 21.6907 13.2201 21.812 12.9275C21.9333 12.635 21.9957 12.3214 21.9957 12.0047C21.9957 11.688 21.9333 11.3744 21.812 11.0818C21.6907 10.7893 21.513 10.5235 21.2889 10.2997L13.6989 2.70968C13.4751 2.48562 13.2093 2.30788 12.9168 2.18662C12.6242 2.06535 12.3106 2.00293 11.9939 2.00293C11.6772 2.00293 11.3637 2.06535 11.0711 2.18662C10.7785 2.30788 10.5128 2.48562 10.2889 2.70968L2.69893 10.2997Z" stroke="#09090B" stroke-width="2" stroke-linecap="round" stroke-linejoin="round"/>
</svg>
