<svg width="24" height="24" viewBox="0 0 24 24" fill="none" xmlns="http://www.w3.org/2000/svg">
<g clip-path="url(#clip0_682_12821)">
<path d="M6.48071 3.65975C8.4038 2.38514 10.7085 1.81471 13.0041 2.04513C15.2997 2.27556 17.445 3.29267 19.0764 4.92406C20.7078 6.55546 21.7249 8.70078 21.9553 10.9964C22.1858 13.292 21.6153 15.5967 20.3407 17.5198M6.41077 6.40967L17.5908 17.5897M3.66073 6.47974C2.38612 8.40283 1.81568 10.7075 2.04611 13.0031C2.27654 15.2987 3.29365 17.444 4.92504 19.0754C6.55644 20.7068 8.70175 21.7239 10.9974 21.9544C13.293 22.1848 15.5976 21.6143 17.5207 20.3397M21.0007 18.9998C21.0007 20.1043 20.1053 20.9998 19.0007 20.9998C17.8962 20.9998 17.0007 20.1043 17.0007 18.9998C17.0007 17.8952 17.8962 16.9998 19.0007 16.9998C20.1053 16.9998 21.0007 17.8952 21.0007 18.9998ZM7.00073 4.99976C7.00073 6.10433 6.1053 6.99976 5.00073 6.99976C3.89616 6.99976 3.00073 6.10433 3.00073 4.99976C3.00073 3.89519 3.89616 2.99976 5.00073 2.99976C6.1053 2.99976 7.00073 3.89519 7.00073 4.99976Z" stroke="#09090B" stroke-width="2" stroke-linecap="round" stroke-linejoin="round"/>
</g>
<defs>
<clipPath id="clip0_682_12821">
<rect width="24" height="24" fill="white"/>
</clipPath>
</defs>
</svg>
