<svg width="24" height="24" viewBox="0 0 24 24" fill="none" xmlns="http://www.w3.org/2000/svg">
<path d="M2.70089 10.3002C2.47684 10.524 2.2991 10.7898 2.17783 11.0823C2.05656 11.3749 1.99414 11.6885 1.99414 12.0052C1.99414 12.3219 2.05656 12.6354 2.17783 12.928C2.2991 13.2206 2.47684 13.4863 2.70089 13.7102L10.2909 21.3002C10.5147 21.5242 10.7805 21.702 11.073 21.8232C11.3656 21.9445 11.6792 22.0069 11.9959 22.0069C12.3126 22.0069 12.6262 21.9445 12.9187 21.8232C13.2113 21.702 13.4771 21.5242 13.7009 21.3002L21.2909 13.7102C21.5149 13.4863 21.6927 13.2206 21.8139 12.928C21.9352 12.6354 21.9976 12.3219 21.9976 12.0052C21.9976 11.6885 21.9352 11.3749 21.8139 11.0823C21.6927 10.7898 21.5149 10.524 21.2909 10.3002L13.7009 2.71016C13.4771 2.48611 13.2113 2.30837 12.9187 2.1871C12.6262 2.06584 12.3126 2.00342 11.9959 2.00342C11.6792 2.00342 11.3656 2.06584 11.073 2.1871C10.7805 2.30837 10.5147 2.48611 10.2909 2.71016L2.70089 10.3002Z" stroke="#09090B" stroke-width="2" stroke-linecap="round" stroke-linejoin="round"/>
</svg>
