<svg width="24" height="24" viewBox="0 0 24 24" fill="none" xmlns="http://www.w3.org/2000/svg">
<path d="M17.92 14.0003L21.42 10.5003C21.791 10.0888 21.9964 9.55437 21.9964 9.0003C21.9964 8.44622 21.791 7.9118 21.42 7.5003L16.42 2.5803C16.0085 2.20926 15.4741 2.00391 14.92 2.00391C14.3659 2.00391 13.8315 2.20926 13.42 2.5803L10 6.0003M6 18.0002H6.01M10 14.0002H10.01M15 6.00024H15.01M18 9.00024H18.01M4 10.0002H12C13.1046 10.0002 14 10.8957 14 12.0002V20.0002C14 21.1048 13.1046 22.0002 12 22.0002H4C2.89543 22.0002 2 21.1048 2 20.0002V12.0002C2 10.8957 2.89543 10.0002 4 10.0002Z" stroke="#09090B" stroke-width="2" stroke-linecap="round" stroke-linejoin="round"/>
</svg>
