<svg width="24" height="24" viewBox="0 0 24 24" fill="none" xmlns="http://www.w3.org/2000/svg">
<path d="M15.999 14V14.5M4.41903 11.2471C4.13916 12.3278 3.99803 13.4397 3.99903 14.5561C3.99903 18.7281 7.58103 21.0001 11.999 21.0001C16.417 21.0001 19.999 18.7281 19.999 14.5561C19.994 13.4352 19.828 12.3208 19.506 11.2471M7.99902 14V14.5M8.499 8.49997C8.115 9.54997 7.41601 10.528 6.155 11C4.224 11.722 2.579 10.703 2.499 9.99997C2.386 9.00597 3.676 3.46997 6.499 2.99997C8.422 2.67897 10.15 3.84497 10.15 5.23497C11.4148 4.91375 12.7415 4.92822 13.999 5.27697C13.999 3.88697 15.843 2.67897 17.766 2.99997C20.589 3.46997 21.879 9.00597 21.766 9.99997C21.686 10.703 20.041 11.722 18.11 11C16.849 10.528 16.255 9.54997 15.871 8.49997M11.249 16.25H12.749L11.999 17L11.249 16.25Z" stroke="#09090B" stroke-width="2" stroke-linecap="round" stroke-linejoin="round"/>
</svg>
