<svg width="24" height="24" viewBox="0 0 24 24" fill="none" xmlns="http://www.w3.org/2000/svg">
<path d="M13 4.00024H16C16.5304 4.00024 17.0391 4.21096 17.4142 4.58603C17.7893 4.9611 18 5.46981 18 6.00024V20.0002M2 20.0002H5M5 20.0002L11.758 21.6892C11.9054 21.726 12.0592 21.7287 12.2078 21.6971C12.3564 21.6655 12.4958 21.6005 12.6155 21.507C12.7352 21.4135 12.8321 21.294 12.8987 21.1575C12.9653 21.021 13 20.8711 13 20.7192V4.5622C12.9998 4.25838 12.9304 3.9576 12.797 3.68461C12.6637 3.41163 12.4699 3.17261 12.2303 2.98571C11.9908 2.79881 11.7118 2.66894 11.4146 2.60595C11.1174 2.54297 10.8098 2.54852 10.515 2.6222L6.515 3.6222C6.08232 3.73035 5.69821 3.98002 5.42371 4.33153C5.1492 4.68303 5.00007 5.11621 5 5.5622V20.0002ZM13 20.0002H22M10 12.0002V12.0102" stroke="#09090B" stroke-width="2" stroke-linecap="round" stroke-linejoin="round"/>
</svg>
