<svg width="24" height="24" viewBox="0 0 24 24" fill="none" xmlns="http://www.w3.org/2000/svg">
<path d="M10.0007 11H10.0107M14.0007 6H14.0107M18.0007 6H18.0107M6.50067 13.1001H6.51067M17.4006 9.8999C16.6006 10.6999 15.4006 10.6999 14.6006 9.8999M10.1007 7.1001C9.00068 7.2001 7.70068 7.7001 6.00068 8.6001C2.50068 10.6001 1.30068 12.5001 2.30068 14.2001C6.80068 22.0001 11.8007 22.6001 13.5007 21.6001C14.4007 21.1001 15.4007 19.5001 15.4007 16.9001M9.10065 16.4999C9.40065 15.3999 10.5006 14.7999 11.5006 15.0999M22.0007 5C22.0007 14 18.0007 17 16.0007 17C14.0007 17 10.0007 14 10.0007 5C10.0007 3 12.0007 2 16.0007 2C20.0007 2 22.0007 3 22.0007 5Z" stroke="#09090B" stroke-width="2" stroke-linecap="round" stroke-linejoin="round"/>
</svg>
