<svg width="24" height="24" viewBox="0 0 24 24" fill="none" xmlns="http://www.w3.org/2000/svg">
<path d="M18.715 13.186C18.29 11.858 17.384 10.607 16 9.5C14 7.9 12.5 5.5 12 3C11.817 3.89624 11.52 4.76533 11.116 5.586M2 2L22 22M8.795 8.79712C8.54146 9.04411 8.27616 9.27871 8 9.50012C6 11.1001 5 13.0001 5 15.0001C4.99984 16.5697 5.52719 18.0938 6.49735 19.3276C7.46751 20.5614 8.82419 21.4334 10.3495 21.8035C11.8748 22.1735 13.4802 22.0203 14.908 21.3682C16.3357 20.7162 17.5028 19.6032 18.222 18.2081" stroke="#09090B" stroke-width="2" stroke-linecap="round" stroke-linejoin="round"/>
</svg>
