<svg width="24" height="24" viewBox="0 0 24 24" fill="none" xmlns="http://www.w3.org/2000/svg">
<path d="M8.29074 12.7102L5.69074 15.3102C5.3732 15.1353 5.02141 15.0315 4.65977 15.006C4.29812 14.9806 3.93527 15.0341 3.59637 15.1629C3.25747 15.2917 2.95064 15.4926 2.69714 15.7518C2.44364 16.011 2.24954 16.3222 2.12831 16.6639C2.00707 17.0055 1.96159 17.3695 1.99503 17.7305C2.02847 18.0915 2.14002 18.4409 2.32195 18.7544C2.50389 19.068 2.75184 19.3383 3.04864 19.5465C3.34543 19.7547 3.68395 19.8959 4.04074 19.9602C4.11075 20.3123 4.25579 20.6453 4.46599 20.9364C4.67619 21.2274 4.94661 21.4698 5.25887 21.647C5.57113 21.8242 5.9179 21.9321 6.27557 21.9633C6.63325 21.9945 6.99345 21.9482 7.33167 21.8278C7.66989 21.7073 7.97818 21.5154 8.23559 21.2651C8.493 21.0148 8.69347 20.712 8.82338 20.3773C8.95328 20.0425 9.00956 19.6838 8.9884 19.3254C8.96724 18.967 8.86913 18.6173 8.70074 18.3002L11.2907 15.7102M15.4007 15.6303C13.9041 16.1105 12.4193 16.1221 11.165 15.6635C9.91073 15.2049 8.9531 14.3002 8.43309 13.0826C7.91308 11.865 7.85814 10.3989 8.27637 8.89994C8.6946 7.40099 9.5639 5.9484 10.7563 4.75597C11.9488 3.56353 13.4014 2.69423 14.9003 2.276C16.3993 1.85777 17.8654 1.91271 19.083 2.43272C20.3006 2.95274 21.2052 3.91036 21.6639 5.16466C22.1225 6.41896 22.1109 7.90369 21.6307 9.40032C20.9359 9.00398 20.055 8.9054 19.1361 9.12115C18.2172 9.3369 17.3165 9.85382 16.5853 10.585C15.8542 11.3161 15.3373 12.2169 15.1215 13.1357C14.9058 14.0546 15.0043 14.9355 15.4007 15.6303Z" stroke="#09090B" stroke-width="2" stroke-linecap="round" stroke-linejoin="round"/>
</svg>
