<svg width="24" height="24" viewBox="0 0 24 24" fill="none" xmlns="http://www.w3.org/2000/svg">
<g clip-path="url(#clip0_682_12747)">
<path d="M14.4007 14.3999L9.60071 9.59985M21.5007 21.4999L20.1007 20.0999M3.90073 3.89976L2.50073 2.49976M18.6578 21.4847C18.2827 21.8598 17.7741 22.0706 17.2436 22.0707C16.7132 22.0708 16.2044 21.8602 15.8293 21.4852C15.4541 21.1101 15.2433 20.6015 15.2432 20.071C15.2431 19.5406 15.4537 19.0318 15.8288 18.6567L14.0618 20.4247C13.6866 20.7998 13.1778 21.0106 12.6473 21.0106C12.1167 21.0106 11.6079 20.7998 11.2328 20.4247C10.8576 20.0495 10.6469 19.5407 10.6469 19.0102C10.6469 18.4796 10.8576 17.9708 11.2328 17.5957L17.5968 11.2317C17.9719 10.8565 18.4807 10.6458 19.0113 10.6458C19.5418 10.6458 20.0506 10.8565 20.4258 11.2317C20.8009 11.6068 21.0117 12.1156 21.0117 12.6462C21.0117 13.1767 20.8009 13.6855 20.4258 14.0607L18.6578 15.8277C19.0329 15.4526 19.5417 15.242 20.0721 15.2421C20.6026 15.2422 21.1112 15.453 21.4863 15.8282C21.8613 16.2033 22.0719 16.7121 22.0718 17.2425C22.0717 17.773 21.8609 18.2816 21.4858 18.6567L18.6578 21.4847ZM6.40474 12.7678C6.02959 13.1429 5.52078 13.3537 4.99024 13.3537C4.4597 13.3537 3.95089 13.1429 3.57574 12.7678C3.20059 12.3926 2.98983 11.8838 2.98983 11.3533C2.98983 10.8227 3.20059 10.3139 3.57574 9.93876L5.34374 8.17176C5.15798 8.35745 4.93747 8.50474 4.6948 8.6052C4.45212 8.70567 4.19204 8.75736 3.92939 8.75731C3.39894 8.75722 2.89026 8.54641 2.51524 8.17126C2.32955 7.98551 2.18227 7.765 2.0818 7.52232C1.98133 7.27965 1.92964 7.01956 1.92969 6.75691C1.92978 6.22646 2.14059 5.71778 2.51574 5.34276L5.34374 2.51476C5.71876 2.13961 6.22744 1.9288 6.75789 1.92871C7.02054 1.92866 7.28062 1.98035 7.5233 2.08082C7.76597 2.18129 7.98648 2.32857 8.17224 2.51426C8.35799 2.69995 8.50536 2.92041 8.60591 3.16305C8.70647 3.40569 8.75824 3.66576 8.75829 3.92841C8.75834 4.19106 8.70665 4.45115 8.60618 4.69382C8.50571 4.9365 8.35843 5.15701 8.17274 5.34276L9.93974 3.57476C10.3149 3.19961 10.8237 2.98886 11.3542 2.98886C11.8848 2.98886 12.3936 3.19961 12.7687 3.57476C13.1439 3.94991 13.3546 4.45872 13.3546 4.98926C13.3546 5.5198 13.1439 6.02861 12.7687 6.40376L6.40474 12.7678Z" stroke="#09090B" stroke-width="2" stroke-linecap="round" stroke-linejoin="round"/>
</g>
<defs>
<clipPath id="clip0_682_12747">
<rect width="24" height="24" fill="white"/>
</clipPath>
</defs>
</svg>
