<svg width="24" height="24" viewBox="0 0 24 24" fill="none" xmlns="http://www.w3.org/2000/svg">
<path d="M6.99939 3.34009V5.00009C6.99939 5.79574 7.31546 6.5588 7.87807 7.12141C8.44068 7.68402 9.20374 8.00009 9.99939 8.00009M10.9994 21.95V18C10.9994 17.4696 10.7887 16.9609 10.4137 16.5858C10.0386 16.2107 9.52987 16 8.99944 16C8.46901 16 7.9603 15.7893 7.58523 15.4142C7.21015 15.0391 6.99944 14.5304 6.99944 14V13C6.99944 12.4696 6.78873 11.9609 6.41365 11.5858C6.03858 11.2107 5.52987 11 4.99944 11H2.04944M14.9994 21.54V17C14.9994 16.4696 15.2101 15.9609 15.5852 15.5858C15.9602 15.2107 16.469 15 16.9994 15H21.5394C20.9849 16.7631 19.9527 18.338 18.5573 19.55C17.1619 20.7619 15.4579 21.5634 13.6346 21.8655C11.8112 22.1676 9.93981 21.9585 8.22811 21.2614C6.51641 20.5642 5.03139 19.4064 3.93793 17.9163C2.84446 16.4263 2.18533 14.6623 2.03371 12.8204C1.88209 10.9784 2.24392 9.1304 3.07901 7.4816C3.91411 5.83281 5.18981 4.4477 6.76448 3.48007C8.33915 2.51243 10.1512 2.00011 11.9994 2M19.9994 6V4C19.9994 3.46957 19.7887 2.96086 19.4136 2.58579C19.0385 2.21071 18.5298 2 17.9994 2C17.469 2 16.9602 2.21071 16.5852 2.58579C16.2101 2.96086 15.9994 3.46957 15.9994 4V6M14.9994 6H20.9994C21.5517 6 21.9994 6.44772 21.9994 7V10C21.9994 10.5523 21.5517 11 20.9994 11H14.9994C14.4471 11 13.9994 10.5523 13.9994 10V7C13.9994 6.44772 14.4471 6 14.9994 6Z" stroke="#09090B" stroke-width="2" stroke-linecap="round" stroke-linejoin="round"/>
</svg>
