<svg width="24" height="24" viewBox="0 0 24 24" fill="none" xmlns="http://www.w3.org/2000/svg">
<path d="M10.7334 5.07599C13.0628 4.7984 15.419 5.29081 17.4423 6.47804C19.4655 7.66527 21.0446 9.48207 21.9384 11.651C22.0217 11.8755 22.0217 12.1225 21.9384 12.347C21.5709 13.238 21.0852 14.0755 20.4944 14.837M14.0844 14.158C13.5186 14.7045 12.7608 15.0069 11.9742 15C11.1876 14.9932 10.4351 14.6777 9.87892 14.1215C9.3227 13.5652 9.00719 12.8128 9.00036 12.0262C8.99352 11.2396 9.29591 10.4818 9.84238 9.91602M17.4795 17.499C16.153 18.2848 14.673 18.776 13.1399 18.9394C11.6068 19.1028 10.0565 18.9345 8.59414 18.4459C7.13182 17.9573 5.7917 17.1599 4.66472 16.1078C3.53773 15.0556 2.65026 13.7734 2.06251 12.348C1.97916 12.1235 1.97916 11.8765 2.06251 11.652C2.94914 9.50189 4.50918 7.69728 6.50851 6.50903M2.00049 2L22.0005 22" stroke="#09090B" stroke-width="2" stroke-linecap="round" stroke-linejoin="round"/>
</svg>
