<svg width="24" height="24" viewBox="0 0 24 24" fill="none" xmlns="http://www.w3.org/2000/svg">
<path d="M3.99915 22H17.9991C18.5296 22 19.0383 21.7893 19.4134 21.4142C19.7884 21.0391 19.9991 20.5304 19.9991 20V7L14.9991 2H5.99915C5.46871 2 4.96 2.21071 4.58493 2.58579C4.20986 2.96086 3.99915 3.46957 3.99915 4V6M13.9991 2V6C13.9991 6.53043 14.2099 7.03914 14.5849 7.41421C14.96 7.78929 15.4687 8 15.9991 8H19.9991M10.2892 10.6999C9.9476 10.3589 9.51217 10.1273 9.03842 10.0346C8.56467 9.94203 8.07407 9.99262 7.62919 10.1799C7.33919 10.2999 7.06919 10.4799 6.84919 10.7099L6.49919 11.0499L6.14919 10.7099C5.80955 10.3692 5.37642 10.1369 4.90466 10.0426C4.4329 9.94823 3.94375 9.99604 3.49919 10.1799C3.19919 10.2999 2.93919 10.4799 2.70919 10.7099C1.75919 11.6499 1.70919 13.2399 2.90919 14.4499L6.49919 17.9999L10.0992 14.4499C11.2992 13.2399 11.2392 11.6499 10.2892 10.7099V10.6999Z" stroke="#09090B" stroke-width="2" stroke-linecap="round" stroke-linejoin="round"/>
</svg>
