<svg width="24" height="24" viewBox="0 0 24 24" fill="none" xmlns="http://www.w3.org/2000/svg">
<path d="M14.0004 2V6C14.0004 6.53043 14.2111 7.03914 14.5862 7.41421C14.9613 7.78929 15.47 8 16.0004 8H20.0004M16.0004 22H18.0004C18.5309 22 19.0396 21.7893 19.4146 21.4142C19.7897 21.0391 20.0004 20.5304 20.0004 20V7L15.0004 2H6.00043C5.46999 2 4.96129 2.21071 4.58621 2.58579C4.21114 2.96086 4.00043 3.46957 4.00043 4V7.5M4.01744 11.512C3.40581 12.0547 2.91159 12.7168 2.56513 13.4576C2.21867 14.1983 2.02728 15.002 2.00271 15.8194C1.97814 16.6368 2.12092 17.4505 2.42227 18.2107C2.72362 18.9709 3.17718 19.6615 3.75511 20.24C4.33303 20.8186 5.02312 21.2729 5.78299 21.575C6.54286 21.8772 7.35648 22.0208 8.17388 21.9971C8.99128 21.9734 9.79521 21.7829 10.5363 21.4372C11.2774 21.0915 11.94 20.598 12.4834 19.987M9.00043 15.9999C8.73521 15.9999 8.48086 15.8946 8.29332 15.707C8.10578 15.5195 8.00043 15.2651 8.00043 14.9999V10.9999C8.00043 10.4479 8.45043 9.99192 8.99543 10.0829C10.2257 10.2898 11.361 10.875 12.2431 11.7572C13.1253 12.6394 13.7106 13.7746 13.9174 15.0049C14.0084 15.5489 13.5524 15.9999 13.0004 15.9999H9.00043Z" stroke="#09090B" stroke-width="2" stroke-linecap="round" stroke-linejoin="round"/>
</svg>
