<svg width="24" height="24" viewBox="0 0 24 24" fill="none" xmlns="http://www.w3.org/2000/svg">
<path d="M14.0007 2V6C14.0007 6.53043 14.2114 7.03914 14.5865 7.41421C14.9616 7.78929 15.4703 8 16.0007 8H20.0007M3.20078 12.9L2.30078 12.5M3.20078 15.1001L2.30078 15.5001M4.67773 21.5C5.04053 21.82 5.507 21.9976 5.99073 22H18.0007C18.5312 22 19.0399 21.7893 19.4149 21.4142C19.79 21.0391 20.0007 20.5304 20.0007 20V7L15.0007 2H6.00073C5.4703 2 4.96159 2.21071 4.58652 2.58579C4.21145 2.96086 4.00073 3.46957 4.00073 4V6.5M4.90073 11.2L4.50073 10.3M4.90073 16.8L4.50073 17.7001M7.50071 10.3L7.10071 11.2M7.50071 17.7001L7.10071 16.8M9.70078 12.5L8.80078 12.9M9.70078 15.5001L8.80078 15.1001M9.00073 14C9.00073 15.6569 7.65759 17 6.00073 17C4.34388 17 3.00073 15.6569 3.00073 14C3.00073 12.3431 4.34388 11 6.00073 11C7.65759 11 9.00073 12.3431 9.00073 14Z" stroke="#09090B" stroke-width="2" stroke-linecap="round" stroke-linejoin="round"/>
</svg>
