<svg width="24" height="24" viewBox="0 0 24 24" fill="none" xmlns="http://www.w3.org/2000/svg">
<path d="M16.0006 17H20.0006M4.00061 13H8.00061M4.00064 16V13.62C4.00064 11.5 2.97064 10.5 3.00064 8C3.03064 5.28 4.49064 2 7.50064 2C9.37064 2 10.0006 3.8 10.0006 5.5C10.0006 8.61 8.00064 11.16 8.00064 14.18V16C8.00064 16.5304 7.78993 17.0391 7.41486 17.4142C7.03978 17.7893 6.53108 18 6.00064 18C5.47021 18 4.9615 17.7893 4.58643 17.4142C4.21136 17.0391 4.00064 16.5304 4.00064 16ZM20.0006 20V17.62C20.0006 15.5 21.0306 14.5 21.0006 12C20.9706 9.28 19.5106 6 16.5006 6C14.6306 6 14.0006 7.8 14.0006 9.5C14.0006 12.61 16.0006 15.16 16.0006 18.18V20C16.0006 20.5304 16.2113 21.0391 16.5864 21.4142C16.9615 21.7893 17.4702 22 18.0006 22C18.531 22 19.0398 21.7893 19.4148 21.4142C19.7899 21.0391 20.0006 20.5304 20.0006 20Z" stroke="#09090B" stroke-width="2" stroke-linecap="round" stroke-linejoin="round"/>
</svg>
