<svg width="24" height="24" viewBox="0 0 24 24" fill="none" xmlns="http://www.w3.org/2000/svg">
<path d="M22.0008 10.0002V16.0002M6.00079 12.5002V16.0002C6.00079 16.7959 6.63293 17.559 7.75815 18.1216C8.88337 18.6842 10.4095 19.0002 12.0008 19.0002C13.5921 19.0002 15.1182 18.6842 16.2434 18.1216C17.3687 17.559 18.0008 16.7959 18.0008 16.0002V12.5002M21.4208 10.9224C21.5998 10.8434 21.7517 10.7136 21.8577 10.5492C21.9637 10.3847 22.0191 10.1927 22.0171 9.99709C22.0151 9.80144 21.9557 9.61068 21.8463 9.44844C21.737 9.2862 21.5824 9.15961 21.4018 9.08436L12.8308 5.18036C12.5702 5.06151 12.2872 5 12.0008 5C11.7144 5 11.4313 5.06151 11.1708 5.18036L2.60077 9.08036C2.42274 9.15833 2.27129 9.28649 2.16494 9.44917C2.05859 9.61185 2.00195 9.802 2.00195 9.99636C2.00195 10.1907 2.05859 10.3809 2.16494 10.5435C2.27129 10.7062 2.42274 10.8344 2.60077 10.9124L11.1708 14.8204C11.4313 14.9392 11.7144 15.0007 12.0008 15.0007C12.2872 15.0007 12.5702 14.9392 12.8308 14.8204L21.4208 10.9224Z" stroke="#09090B" stroke-width="2" stroke-linecap="round" stroke-linejoin="round"/>
</svg>
