<svg width="24" height="24" viewBox="0 0 24 24" fill="none" xmlns="http://www.w3.org/2000/svg">
<path d="M13.1431 21.1437C14.1131 20.1737 14.9406 19.0801 15.5782 17.9254C16.2159 16.7708 16.6512 15.5776 16.8595 14.414C17.0677 13.2505 17.0447 12.1393 16.7918 11.144C16.5389 10.1487 16.0611 9.28874 15.3856 8.61322C14.71 7.9377 13.8501 7.45985 12.8548 7.20695C11.8595 6.95406 10.7483 6.93107 9.58476 7.1393C8.4212 7.34753 7.22802 7.78291 6.07334 8.42056C4.91867 9.05822 3.82511 9.88567 2.85511 10.8557M13.1431 21.1437C13.9618 20.325 14.205 18.9981 13.8192 17.4545C13.4334 15.9109 12.4502 14.2773 11.0859 12.913C9.72167 11.5488 8.08806 10.5656 6.54448 10.1798C5.0009 9.79399 3.67378 10.037 2.85511 10.8557M13.1431 21.1437C12.3244 21.9623 10.9973 22.2057 9.45377 21.8199C7.91019 21.4341 6.27657 20.451 4.9123 19.0867C3.54803 17.7224 2.56485 16.0888 2.17905 14.5452C1.79326 13.0016 2.03643 11.6743 2.85511 10.8557M16.5642 10.4348L18.5992 8.39982C18.9169 8.57584 19.2691 8.68057 19.6313 8.7067C19.9936 8.73284 20.3572 8.67977 20.6969 8.55117C21.0365 8.42257 21.3441 8.22154 21.5982 7.96205C21.8523 7.70256 22.0469 7.39083 22.1683 7.04855C22.2898 6.70626 22.3352 6.34163 22.3015 5.98001C22.2678 5.61838 22.1557 5.26844 21.9731 4.9545C21.7905 4.64057 21.5416 4.37019 21.2439 4.16215C20.9462 3.95411 20.6068 3.8134 20.2492 3.74982C20.1792 3.39767 20.0341 3.06474 19.8239 2.77367C19.6137 2.4826 19.3433 2.24021 19.0311 2.06301C18.7188 1.88581 18.372 1.77795 18.0144 1.74676C17.6567 1.71557 17.2965 1.76178 16.9583 1.88226C16.62 2.00275 16.3117 2.19466 16.0543 2.44496C15.7969 2.69526 15.5965 2.99806 15.4666 3.33277C15.3366 3.66748 15.2804 4.02625 15.3015 4.38466C15.3227 4.74307 15.4208 5.09272 15.5892 5.40982L13.5652 7.43482M8.49915 16.4998L7.49915 15.4998" stroke="#09090B" stroke-width="2" stroke-linecap="round" stroke-linejoin="round"/>
</svg>
