<svg width="24" height="24" viewBox="0 0 24 24" fill="none" xmlns="http://www.w3.org/2000/svg">
<path d="M15.0002 12L6.62718 20.373C6.22935 20.7708 5.68979 20.9943 5.12718 20.9943C4.56457 20.9943 4.025 20.7708 3.62718 20.373C3.22936 19.9752 3.00586 19.4356 3.00586 18.873C3.00586 18.3104 3.22936 17.7708 3.62718 17.373L12.0002 9M18.0001 15L22.0001 11M21.5001 11.5L19.5861 9.58596C19.211 9.21098 19.0002 8.70235 19.0001 8.17196V6.99996L16.7401 4.73996C15.6247 3.62515 14.1151 2.99432 12.5381 2.98396L9.00012 2.95996L9.92012 3.77996C10.5736 4.35935 11.0968 5.07066 11.4553 5.867C11.8139 6.66335 11.9995 7.52663 12.0001 8.39996V9.99996L14.0001 12H15.1721C15.7025 12.0001 16.2111 12.2109 16.5861 12.586L18.5001 14.5" stroke="#09090B" stroke-width="2" stroke-linecap="round" stroke-linejoin="round"/>
</svg>
