<svg width="24" height="24" viewBox="0 0 24 24" fill="none" xmlns="http://www.w3.org/2000/svg">
<path d="M12 3V2M12 3C10.1435 3 8.36301 3.7375 7.05025 5.05025C5.7375 6.36301 5 8.14348 5 10M12 3C13.8565 3 15.637 3.7375 16.9497 5.05025C18.2625 6.36301 19 8.14348 19 10M15.4 17.4L18.6 14.6C18.7904 14.4161 19.0152 14.2716 19.2615 14.1746C19.5077 14.0776 19.7707 14.0301 20.0354 14.0347C20.3 14.0394 20.5611 14.0961 20.8039 14.2017C21.0466 14.3072 21.2662 14.4596 21.45 14.65C21.6339 14.8404 21.7784 15.0652 21.8754 15.3114C21.9724 15.5577 22.0199 15.8207 22.0153 16.0853C22.0106 16.35 21.9539 16.6111 21.8483 16.8539C21.7428 17.0966 21.5904 17.3161 21.4 17.5L17.8 20.8C17.1 21.6 16.1 22 15 22H11C9.9 22 8.9 21.6 8.2 20.8L6.898 19.336C6.80426 19.2304 6.68923 19.1459 6.56048 19.088C6.43173 19.0301 6.29218 19.0001 6.151 19H5M2 14H14C14.5304 14 15.0391 14.2107 15.4142 14.5858C15.7893 14.9609 16 15.4696 16 16C16 16.5304 15.7893 17.0391 15.4142 17.4142C15.0391 17.7893 14.5304 18 14 18H12M4 10H20M5 14V20C5 20.2652 4.89464 20.5196 4.70711 20.7071C4.51957 20.8946 4.26522 21 4 21H2" stroke="#09090B" stroke-width="2" stroke-linecap="round" stroke-linejoin="round"/>
</svg>
