<svg width="24" height="24" viewBox="0 0 24 24" fill="none" xmlns="http://www.w3.org/2000/svg">
<path d="M11 12.0002H13C13.5304 12.0002 14.0391 11.7895 14.4142 11.4145C14.7893 11.0394 15 10.5307 15 10.0002C15 9.46981 14.7893 8.9611 14.4142 8.58603C14.0391 8.21096 13.5304 8.00024 13 8.00024H10C9.4 8.00024 8.9 8.20024 8.6 8.60024L3 14.0002M7 18.0003L8.6 16.6003C8.9 16.2003 9.4 16.0003 10 16.0003H14C15.1 16.0003 16.1 15.6003 16.8 14.8003L21.4 10.4003C21.7859 10.0356 22.0111 9.53257 22.0261 9.00184C22.0411 8.47111 21.8447 7.95616 21.48 7.57027C21.1153 7.18438 20.6123 6.95916 20.0816 6.94416C19.5508 6.92916 19.0359 7.1256 18.65 7.49027L14.45 11.3903M2 13.0002L8 19.0002" stroke="#09090B" stroke-width="2" stroke-linecap="round" stroke-linejoin="round"/>
</svg>
