<svg width="24" height="24" viewBox="0 0 24 24" fill="none" xmlns="http://www.w3.org/2000/svg">
<path d="M10.82 16.1201C12.51 16.7201 14.73 16.9101 16 16.9701C16.28 16.9801 16.53 16.8801 16.7 16.7001M11.14 20.57C11.66 20.81 13.58 21.69 15.22 21.94C15.68 22 16.08 21.6899 16.12 21.2299C16.24 19.7099 15.82 17.8 15.62 16.95M16.13 21.05C17.78 21.68 19.81 21.89 21 21.96C21.1285 21.9693 21.2575 21.9509 21.3782 21.9061C21.499 21.8612 21.6087 21.791 21.7 21.7001M17.99 5.52002C19.234 6.87439 20.2932 8.38754 21.14 10.02C21.1938 10.1382 21.218 10.2676 21.2106 10.3973C21.2031 10.5269 21.1643 10.6527 21.0973 10.764C21.0304 10.8752 20.9374 10.9685 20.8264 11.0357C20.7153 11.103 20.5896 11.1422 20.46 11.15C19.29 11.25 17.96 11.17 16.56 10.9M20.57 11.1399C20.81 11.6599 21.69 13.5799 21.94 15.2199C21.98 15.5199 21.86 15.8099 21.63 15.9699M4.92998 4.92993C3.17717 6.68311 2.13806 9.02487 2.01426 11.5009C1.89045 13.9769 2.69079 16.4107 4.25998 18.3299C4.60998 18.7599 5.21998 18.7299 5.42998 18.2099C6.11998 16.4999 6.49998 13.1399 6.49998 11.4999C7.83998 11.9499 9.59998 12.3999 11.38 12.1199C11.5617 12.0939 11.7301 12.0097 11.86 11.8799M5.52002 17.9899C6.57002 18.9399 8.43002 20.4099 10.02 21.1399C10.1382 21.1937 10.2676 21.2179 10.3973 21.2105C10.5269 21.2031 10.6527 21.1642 10.764 21.0973C10.8752 21.0303 10.9685 20.9373 11.0357 20.8263C11.103 20.7153 11.1422 20.5895 11.15 20.4599C11.35 18.1199 10.82 15.1599 9.58002 12.1799M8.34998 2.67988C10.0039 2.03338 11.8002 1.83898 13.5542 2.11667C15.3082 2.39435 16.9566 3.1341 18.33 4.25988C18.76 4.60988 18.73 5.21988 18.21 5.42988C16.71 6.02988 13.91 6.40988 12.14 6.47988M2 2L22 22" stroke="#09090B" stroke-width="2" stroke-linecap="round" stroke-linejoin="round"/>
</svg>
