<svg width="24" height="24" viewBox="0 0 24 24" fill="none" xmlns="http://www.w3.org/2000/svg">
<path d="M10.8195 16.1201C12.5095 16.7201 14.7295 16.9101 15.9995 16.9701C16.5495 17.0001 16.9995 16.5501 16.9695 16.0001C16.9095 14.7301 16.7095 12.5001 16.1195 10.8201M15.6195 16.95C15.8195 17.8 16.2395 19.7099 16.1195 21.2299C16.1114 21.337 16.0809 21.4412 16.0301 21.5358C15.9793 21.6304 15.9092 21.7133 15.8245 21.7792C15.7397 21.8451 15.6421 21.8926 15.5379 21.9185C15.4338 21.9445 15.3253 21.9484 15.2195 21.93C13.8064 21.655 12.435 21.1979 11.1395 20.57M16.1295 21.0499C17.7795 21.6799 19.8095 21.8899 20.9995 21.9599C21.1279 21.9688 21.2566 21.95 21.3771 21.9049C21.4977 21.8598 21.6071 21.7894 21.6981 21.6984C21.789 21.6074 21.8595 21.498 21.9046 21.3775C21.9497 21.257 21.9684 21.1282 21.9595 20.9999C21.8895 19.3424 21.5865 17.703 21.0595 16.1299M16.9395 15.6199C17.7995 15.8199 19.7095 16.2399 21.2295 16.1199C21.3366 16.1117 21.4407 16.0813 21.5353 16.0304C21.6299 15.9796 21.7128 15.9096 21.7788 15.8249C21.8447 15.7401 21.8921 15.6425 21.9181 15.5383C21.9441 15.4341 21.948 15.3257 21.9295 15.2199C21.6546 13.8068 21.1974 12.4353 20.5695 11.1399M17.9895 5.52002C19.2336 6.87432 20.2929 8.38748 21.1395 10.02C21.1933 10.1382 21.2175 10.2676 21.2101 10.3973C21.2027 10.5269 21.1638 10.6527 21.0969 10.764C21.0299 10.8752 20.9369 10.9685 20.8259 11.0357C20.7148 11.103 20.5891 11.1422 20.4595 11.15C18.1295 11.35 15.1595 10.83 12.1895 9.58002M4.92953 4.93L2.99953 3C2.93301 2.93482 2.88017 2.85703 2.84409 2.77117C2.80801 2.68532 2.78943 2.59313 2.78943 2.5C2.78943 2.40687 2.80801 2.31468 2.84409 2.22883C2.88017 2.14297 2.93301 2.06518 2.99953 2M9.57953 12.1799C10.8195 15.1599 11.3495 18.1299 11.1495 20.4599C11.1417 20.5895 11.1025 20.7153 11.0352 20.8263C10.968 20.9373 10.8747 21.0303 10.7635 21.0973C10.6522 21.1642 10.5264 21.2031 10.3968 21.2105C10.2672 21.2179 10.1377 21.1937 10.0195 21.1399C8.387 20.2933 6.87383 19.2341 5.51953 17.9899M11.4995 6.50003C13.1395 6.50003 16.4995 6.12003 18.2095 5.43003C18.7295 5.23003 18.7595 4.61003 18.3295 4.26003C16.4099 2.69381 13.9772 1.89595 11.5028 2.02107C9.02845 2.14619 6.68863 3.18537 4.93675 4.93724C3.18488 6.68911 2.1457 9.02894 2.02058 11.5033C1.89546 13.9777 2.69332 16.4104 4.25954 18.33C4.60954 18.76 5.21954 18.73 5.42954 18.21C6.11954 16.5 6.49954 13.14 6.49954 11.5C7.83954 11.95 9.59954 12.4 11.3795 12.12C11.564 12.0902 11.7342 12.0024 11.8655 11.8693C11.9967 11.7363 12.0822 11.5649 12.1095 11.38C12.4095 9.24003 11.9595 7.88003 11.4995 6.50003Z" stroke="#09090B" stroke-width="2" stroke-linecap="round" stroke-linejoin="round"/>
</svg>
