<svg width="24" height="24" viewBox="0 0 24 24" fill="none" xmlns="http://www.w3.org/2000/svg">
<path d="M13.22 2.41631C12.8579 2.13751 12.4113 1.99112 11.9544 2.00149C11.4976 2.01186 11.0581 2.17837 10.709 2.47331L3.709 8.47231C3.4868 8.66011 3.30824 8.89412 3.18579 9.15803C3.06333 9.42193 2.99993 9.70938 3 10.0003V19.0003C3 19.5307 3.21071 20.0394 3.58579 20.4145C3.96086 20.7896 4.46957 21.0003 5 21.0003H19C19.5304 21.0003 20.0391 20.7896 20.4142 20.4145C20.7893 20.0394 21 19.5307 21 19.0003V11.6463M15 21.0002V13.0002C15 12.735 14.8946 12.4807 14.7071 12.2931C14.5196 12.1056 14.2652 12.0002 14 12.0002H10C9.73478 12.0002 9.48043 12.1056 9.29289 12.2931C9.10536 12.4807 9 12.735 9 13.0002V21.0002M15 6.00024H21M18 3.00024V9.00024" stroke="#09090B" stroke-width="2" stroke-linecap="round" stroke-linejoin="round"/>
</svg>
