<svg width="24" height="24" viewBox="0 0 24 24" fill="none" xmlns="http://www.w3.org/2000/svg">
<path d="M16 3H21M21 3V8M21 3L16 8M17 21H19C19.5304 21 20.0391 20.7893 20.4142 20.4142C20.7893 20.0391 21 19.5304 21 19M21 12V15M3 7V5C3 4.46957 3.21071 3.96086 3.58579 3.58579C3.96086 3.21071 4.46957 3 5 3M5 21L9.144 16.856C9.25637 16.7435 9.38981 16.6543 9.53669 16.5934C9.68357 16.5326 9.84101 16.5012 10 16.5012C10.159 16.5012 10.3164 16.5326 10.4633 16.5934C10.6102 16.6543 10.7436 16.7435 10.856 16.856L13 19M9 3H12M4 11H12C12.5523 11 13 11.4477 13 12V20C13 20.5523 12.5523 21 12 21H4C3.44772 21 3 20.5523 3 20V12C3 11.4477 3.44772 11 4 11Z" stroke="#09090B" stroke-width="2" stroke-linecap="round" stroke-linejoin="round"/>
</svg>
