<svg width="24" height="24" viewBox="0 0 24 24" fill="none" xmlns="http://www.w3.org/2000/svg">
<path d="M14 7.00024L17 10.0002M9.4 10.6003L2.586 17.4143C2.2109 17.7893 2.00011 18.298 2 18.8283V21.0003C2 21.2656 2.10536 21.5199 2.29289 21.7074C2.48043 21.895 2.73478 22.0003 3 22.0003H6C6.26522 22.0003 6.51957 21.895 6.70711 21.7074C6.89464 21.5199 7 21.2656 7 21.0003V20.0003C7 19.7351 7.10536 19.4808 7.29289 19.2932C7.48043 19.1057 7.73478 19.0003 8 19.0003H9C9.26522 19.0003 9.51957 18.895 9.70711 18.7074C9.89464 18.5199 10 18.2656 10 18.0003V17.0003C10 16.7351 10.1054 16.4808 10.2929 16.2932C10.4804 16.1057 10.7348 16.0003 11 16.0003H11.172C11.7024 16.0002 12.211 15.7894 12.586 15.4143L13.4 14.6003M12.3999 2.70017C12.8622 2.27143 13.4694 2.0332 14.0999 2.0332C14.7304 2.0332 15.3376 2.27143 15.7999 2.70017L21.2999 8.20017C21.7287 8.66246 21.9669 9.26967 21.9669 9.90017C21.9669 10.5307 21.7287 11.1379 21.2999 11.6002L17.5999 15.3002C17.1376 15.7289 16.5304 15.9671 15.8999 15.9671C15.2694 15.9671 14.6622 15.7289 14.1999 15.3002L8.69993 9.80017C8.27119 9.33788 8.03296 8.73067 8.03296 8.10017C8.03296 7.46968 8.27119 6.86246 8.69993 6.40017L12.3999 2.70017Z" stroke="#09090B" stroke-width="2" stroke-linecap="round" stroke-linejoin="round"/>
</svg>
