<svg width="24" height="24" viewBox="0 0 24 24" fill="none" xmlns="http://www.w3.org/2000/svg">
<path d="M8.71357 14H5.00357C4.7939 14.0001 4.58956 14.0661 4.41945 14.1886C4.24933 14.3112 4.12204 14.4841 4.05557 14.683L2.05157 20.683C2.00133 20.8333 1.98754 20.9934 2.01133 21.1501C2.03512 21.3068 2.09581 21.4556 2.1884 21.5842C2.28098 21.7128 2.40282 21.8176 2.54385 21.8899C2.68489 21.9622 2.84109 21.9999 2.99957 22H20.9996C21.1579 21.9999 21.314 21.9621 21.455 21.8899C21.5959 21.8177 21.7176 21.713 21.8102 21.5845C21.9028 21.456 21.9635 21.3074 21.9874 21.1508C22.0113 20.9942 21.9976 20.8343 21.9476 20.684L19.9476 14.684C19.8812 14.4848 19.7539 14.3115 19.5835 14.1888C19.4132 14.066 19.2085 13.9999 18.9986 14H15.2866M17.9995 8C17.9995 11.613 14.1305 15.429 12.6065 16.795C12.4322 16.9282 12.2189 17.0003 11.9995 17.0003C11.7801 17.0003 11.5668 16.9282 11.3925 16.795C9.86951 15.429 5.99951 11.613 5.99951 8C5.99951 6.4087 6.63165 4.88258 7.75687 3.75736C8.88209 2.63214 10.4082 2 11.9995 2C13.5908 2 15.1169 2.63214 16.2422 3.75736C17.3674 4.88258 17.9995 6.4087 17.9995 8ZM13.9995 8C13.9995 9.10457 13.1041 10 11.9995 10C10.8949 10 9.99951 9.10457 9.99951 8C9.99951 6.89543 10.8949 6 11.9995 6C13.1041 6 13.9995 6.89543 13.9995 8Z" stroke="#09090B" stroke-width="2" stroke-linecap="round" stroke-linejoin="round"/>
</svg>
