<svg width="24" height="24" viewBox="0 0 24 24" fill="none" xmlns="http://www.w3.org/2000/svg">
<path d="M21 15C21 15.5304 20.7893 16.0391 20.4142 16.4142C20.0391 16.7893 19.5304 17 19 17H7L3 21V5C3 4.46957 3.21071 3.96086 3.58579 3.58579C3.96086 3.21071 4.46957 3 5 3H19C19.5304 3 20.0391 3.21071 20.4142 3.58579C20.7893 3.96086 21 4.46957 21 5V15Z" stroke="#09090B" stroke-width="2" stroke-linecap="round" stroke-linejoin="round"/>
<path d="M14.8 7.50001C14.4551 7.1556 13.9875 6.96216 13.5 6.96216C13.0126 6.96216 12.545 7.1556 12.2 7.50001L12 7.80001L11.7 7.50001C11.5162 7.34242 11.3031 7.22259 11.0729 7.14735C10.8428 7.07212 10.6 7.04296 10.3586 7.06153C10.1172 7.0801 9.88177 7.14604 9.66583 7.25559C9.44988 7.36514 9.25762 7.51616 9.10004 7.70001C8.94245 7.88386 8.82262 8.09695 8.74739 8.32711C8.67215 8.55727 8.64299 8.79999 8.66156 9.04143C8.68013 9.28286 8.74607 9.51827 8.85563 9.73422C8.96518 9.95016 9.11619 10.1424 9.30004 10.3L12 13L14.7 10.3C15.6 9.40001 15.5 8.20001 14.8 7.50001Z" stroke="#09090B" stroke-width="2" stroke-linecap="round" stroke-linejoin="round"/>
</svg>
