<svg width="24" height="24" viewBox="0 0 24 24" fill="none" xmlns="http://www.w3.org/2000/svg">
<path d="M12 16.9998V20.9998M15.2 4.89976L14.3 4.49976M15.2 7.09985L14.3 7.49985M16.9 3.1998L16.5 2.2998M16.9 8.7998L16.5 9.6998M19.5001 2.2998L19.1001 3.1998M19.5001 9.6998L19.1001 8.7998M21.7001 4.49976L20.8 4.89976M21.7001 7.49985L20.8 7.09985M22 12.9998V14.9998C22 15.5302 21.7893 16.0389 21.4142 16.414C21.0391 16.789 20.5304 16.9998 20 16.9998H4C3.46957 16.9998 2.96086 16.789 2.58579 16.414C2.21071 16.0389 2 15.5302 2 14.9998V4.99976C2 4.46932 2.21071 3.96061 2.58579 3.58554C2.96086 3.21047 3.46957 2.99976 4 2.99976H11M8 20.9998H16M21 5.99976C21 7.65661 19.6569 8.99976 18 8.99976C16.3431 8.99976 15 7.65661 15 5.99976C15 4.3429 16.3431 2.99976 18 2.99976C19.6569 2.99976 21 4.3429 21 5.99976Z" stroke="#09090B" stroke-width="2" stroke-linecap="round" stroke-linejoin="round"/>
</svg>
