<svg width="24" height="24" viewBox="0 0 24 24" fill="none" xmlns="http://www.w3.org/2000/svg">
<path d="M11.7994 11.8L20.1994 20.2001M2.03344 2.68093C1.99739 2.59049 1.98864 2.49147 2.00828 2.39611C2.02791 2.30075 2.07506 2.21324 2.14391 2.1444C2.21275 2.07555 2.30026 2.0284 2.39562 2.00877C2.49098 1.98913 2.59 1.99788 2.68044 2.03393L11.6804 5.53393C11.7773 5.57143 11.8601 5.63816 11.9172 5.72485C11.9744 5.81153 12.0032 5.91388 11.9996 6.01767C11.996 6.12146 11.9601 6.22154 11.897 6.30402C11.8339 6.3865 11.7467 6.44729 11.6474 6.47793L8.20344 7.54493C8.04805 7.59297 7.90673 7.6782 7.79172 7.7932C7.67671 7.90821 7.59149 8.04954 7.54344 8.20493L6.47744 11.6479C6.4468 11.7472 6.38601 11.8344 6.30353 11.8975C6.22105 11.9606 6.12097 11.9965 6.01718 12.0001C5.91339 12.0037 5.81104 11.9749 5.72436 11.9177C5.63767 11.8605 5.57094 11.7778 5.53344 11.6809L2.03344 2.68093ZM21.9994 16C21.9994 19.3137 19.3131 22 15.9994 22C12.6857 22 9.99939 19.3137 9.99939 16C9.99939 12.6863 12.6857 10 15.9994 10C19.3131 10 21.9994 12.6863 21.9994 16Z" stroke="#09090B" stroke-width="2" stroke-linecap="round" stroke-linejoin="round"/>
</svg>
