<svg width="24" height="24" viewBox="0 0 24 24" fill="none" xmlns="http://www.w3.org/2000/svg">
<path d="M4.0369 4.6879C3.99743 4.59682 3.98626 4.49597 4.00484 4.39846C4.02342 4.30094 4.07088 4.21127 4.14108 4.14108C4.21127 4.07088 4.30094 4.02342 4.39846 4.00484C4.49597 3.98626 4.59682 3.99743 4.6879 4.0369L20.6879 10.5369C20.7852 10.5765 20.8675 10.6458 20.9232 10.7349C20.9789 10.824 21.0051 10.9283 20.9981 11.0331C20.9912 11.138 20.9514 11.2379 20.8844 11.3188C20.8174 11.3997 20.7266 11.4575 20.6249 11.4839L14.5009 13.0639C14.1549 13.1529 13.839 13.3329 13.5861 13.5852C13.3332 13.8376 13.1526 14.1531 13.0629 14.4989L11.4839 20.6249C11.4575 20.7266 11.3997 20.8174 11.3188 20.8844C11.2379 20.9514 11.138 20.9912 11.0331 20.9981C10.9283 21.0051 10.824 20.9789 10.7349 20.9232C10.6458 20.8675 10.5765 20.7852 10.5369 20.6879L4.0369 4.6879Z" stroke="#09090B" stroke-width="2" stroke-linecap="round" stroke-linejoin="round"/>
</svg>
