<svg width="24" height="24" viewBox="0 0 24 24" fill="none" xmlns="http://www.w3.org/2000/svg">
<path d="M13.9993 4.10034L11.9993 6.00034M5.09922 8.0002L2.19922 7.2002M5.99924 12.0002L4.09924 14.0002M7.19922 2.2002L7.99922 5.1002M9.0363 9.69015C8.99752 9.5988 8.98692 9.49795 9.00585 9.40054C9.02479 9.30313 9.07239 9.21359 9.14257 9.14342C9.21274 9.07325 9.30227 9.02564 9.39969 9.00671C9.4971 8.98777 9.59795 8.99837 9.6893 9.03715L20.6893 13.5372C20.7872 13.5773 20.8698 13.6475 20.9253 13.7376C20.9808 13.8277 21.0062 13.9331 20.998 14.0386C20.9898 14.1441 20.9483 14.2443 20.8795 14.3247C20.8108 14.4051 20.7182 14.4616 20.6153 14.4862L16.2663 15.5272C16.0868 15.57 15.9226 15.6618 15.792 15.7922C15.6614 15.9226 15.5694 16.0867 15.5263 16.2662L14.4863 20.6161C14.4621 20.7194 14.4056 20.8123 14.3251 20.8814C14.2445 20.9505 14.1441 20.9922 14.0383 21.0004C13.9326 21.0087 13.8269 20.983 13.7367 20.9273C13.6464 20.8715 13.5762 20.7884 13.5363 20.6902L9.0363 9.69015Z" stroke="#09090B" stroke-width="2" stroke-linecap="round" stroke-linejoin="round"/>
</svg>
