<svg width="24" height="24" viewBox="0 0 24 24" fill="none" xmlns="http://www.w3.org/2000/svg">
<path d="M3 20.0001H7.5C7.63261 20.0001 7.75979 19.9474 7.85355 19.8536C7.94732 19.7599 8 19.6327 8 19.5001V19.2181C7.99906 19.1303 7.97591 19.0442 7.93272 18.9678C7.88953 18.8914 7.82771 18.8272 7.753 18.7811C6.28137 17.8594 5.14957 16.484 4.52847 14.8625C3.90738 13.241 3.83073 11.4614 4.31009 9.79245C4.78945 8.12352 5.7988 6.65587 7.18573 5.6111C8.57266 4.56634 10.2619 4.00118 11.9983 4.00098C13.7347 4.00077 15.424 4.56553 16.8112 5.60997C18.1983 6.65441 19.208 8.12182 19.6878 9.79064C20.1675 11.4595 20.0913 13.2391 19.4706 14.8607C18.8499 16.4824 17.7184 17.8581 16.247 18.7801C16.1722 18.8262 16.1102 18.8906 16.067 18.9672C16.0238 19.0438 16.0008 19.1301 16 19.2181V19.5001C16 19.6327 16.0527 19.7599 16.1464 19.8536C16.2402 19.9474 16.3674 20.0001 16.5 20.0001H21" stroke="#09090B" stroke-width="2" stroke-linecap="round" stroke-linejoin="round"/>
</svg>
