<svg width="24" height="24" viewBox="0 0 24 24" fill="none" xmlns="http://www.w3.org/2000/svg">
<g clip-path="url(#clip0_682_11773)">
<path d="M10.3998 21.8999C12.3226 22.2158 14.2958 21.9631 16.0769 21.1729C17.858 20.3826 19.3694 19.0892 20.4254 17.4516C21.4814 15.814 22.0359 13.9036 22.0209 11.9551C22.0059 10.0066 21.422 8.105 20.3408 6.48389M13.4998 2.09996C11.5849 1.80754 9.62631 2.07757 7.86198 2.87726C6.09765 3.67694 4.60356 4.97184 3.56126 6.60461C2.51896 8.23739 1.97332 10.1377 1.99063 12.0748C2.00795 14.0118 2.58749 15.9021 3.65882 17.516M14.9998 12C14.9998 13.6569 13.6567 15 11.9998 15C10.343 15 8.99982 13.6569 8.99982 12C8.99982 10.3431 10.343 9 11.9998 9C13.6567 9 14.9998 10.3431 14.9998 12ZM20.9998 5C20.9998 6.10457 20.1044 7 18.9998 7C17.8952 7 16.9998 6.10457 16.9998 5C16.9998 3.89543 17.8952 3 18.9998 3C20.1044 3 20.9998 3.89543 20.9998 5ZM6.99982 19C6.99982 20.1046 6.10439 21 4.99982 21C3.89525 21 2.99982 20.1046 2.99982 19C2.99982 17.8954 3.89525 17 4.99982 17C6.10439 17 6.99982 17.8954 6.99982 19Z" stroke="#09090B" stroke-width="2" stroke-linecap="round" stroke-linejoin="round"/>
</g>
<defs>
<clipPath id="clip0_682_11773">
<rect width="24" height="24" fill="white"/>
</clipPath>
</defs>
</svg>
