<svg width="24" height="24" viewBox="0 0 24 24" fill="none" xmlns="http://www.w3.org/2000/svg">
<path d="M12.0005 12V4C12.0005 3.73478 12.1058 3.48043 12.2934 3.29289C12.4809 3.10536 12.7353 3 13.0005 3H19.2975C19.5018 3.00002 19.7011 3.0626 19.8688 3.17933C20.0364 3.29606 20.1643 3.46133 20.2352 3.65291C20.3061 3.84449 20.3167 4.0532 20.2654 4.25094C20.2141 4.44869 20.1035 4.62599 19.9485 4.759L15.2525 8.784M12.0005 21L4.58649 13.586C4.21139 13.211 4.0006 12.7023 4.00049 12.172V6.41496C4.00148 6.21763 4.0607 6.02499 4.17075 5.86119C4.28079 5.6974 4.43675 5.56974 4.61906 5.49423C4.80137 5.41872 5.00191 5.39872 5.19554 5.43675C5.38917 5.47477 5.56727 5.56912 5.70749 5.70796L20.0005 20.009M12.2145 3.3811L20.6285 18.3471C20.7356 18.5377 20.7772 18.7582 20.747 18.9747C20.7169 19.1913 20.6166 19.392 20.4615 19.5461L19.2935 20.7091C19.1059 20.8957 18.8521 21.0003 18.5875 21.0001H6.3515C6.12433 21.0002 5.90391 20.923 5.7265 20.7811L3.2505 18.8001C3.08821 18.6703 2.97037 18.4932 2.91337 18.2934C2.85636 18.0936 2.86302 17.881 2.93241 17.6851C3.0018 17.4893 3.13049 17.3199 3.30057 17.2005C3.47066 17.0812 3.67371 17.0178 3.8815 17.0191L8.04649 17.0461" stroke="#09090B" stroke-width="2" stroke-linecap="round" stroke-linejoin="round"/>
</svg>
