<svg width="24" height="24" viewBox="0 0 24 24" fill="none" xmlns="http://www.w3.org/2000/svg">
<path d="M11.9995 22.0002V13.0002M19.9995 13.0002V16.8702C19.9999 17.2477 19.8966 17.618 19.7008 17.9407C19.5051 18.2634 19.2244 18.5262 18.8895 18.7002L12.8895 21.7802C12.6146 21.9231 12.3093 21.9977 11.9995 21.9977C11.6897 21.9977 11.3844 21.9231 11.1095 21.7802L5.10951 18.7002C4.7746 18.5262 4.49394 18.2634 4.29819 17.9407C4.10244 17.618 3.99912 17.2477 3.99951 16.8702V13.0002M15.1695 2.21018C15.4186 2.07092 15.6992 1.9978 15.9845 1.9978C16.2699 1.9978 16.5505 2.07092 16.7995 2.21018L20.9995 4.57018C21.297 4.73838 21.5444 4.98254 21.7166 5.2777C21.8888 5.57287 21.9795 5.90846 21.9795 6.25018C21.9795 6.59189 21.8888 6.92748 21.7166 7.22265C21.5444 7.51781 21.297 7.76197 20.9995 7.93018L8.81953 14.7902C8.56973 14.9327 8.28711 15.0076 7.99953 15.0076C7.71195 15.0076 7.42933 14.9327 7.17953 14.7902L2.99953 12.4302C2.70208 12.262 2.45462 12.0178 2.28244 11.7226C2.11026 11.4275 2.01953 11.0919 2.01953 10.7502C2.01953 10.4085 2.11026 10.0729 2.28244 9.77771C2.45462 9.48254 2.70208 9.23838 2.99953 9.07018L15.1695 2.21018ZM20.9995 12.4302C21.297 12.262 21.5444 12.0179 21.7166 11.7227C21.8888 11.4275 21.9795 11.092 21.9795 10.7502C21.9795 10.4085 21.8888 10.0729 21.7166 9.77777C21.5444 9.4826 21.297 9.23844 20.9995 9.07024L8.82953 2.20024C8.58141 2.05815 8.30046 1.9834 8.01453 1.9834C7.72861 1.9834 7.44765 2.05815 7.19953 2.20024L2.99953 4.57024C2.70208 4.73844 2.45462 4.9826 2.28244 5.27777C2.11026 5.57294 2.01953 5.90853 2.01953 6.25024C2.01953 6.59196 2.11026 6.92755 2.28244 7.22271C2.45462 7.51788 2.70208 7.76204 2.99953 7.93024L15.1795 14.7902C15.4275 14.9327 15.7085 15.0077 15.9945 15.0077C16.2805 15.0077 16.5615 14.9327 16.8095 14.7902L20.9995 12.4302Z" stroke="#09090B" stroke-width="2" stroke-linecap="round" stroke-linejoin="round"/>
</svg>
