<svg width="24" height="24" viewBox="0 0 24 24" fill="none" xmlns="http://www.w3.org/2000/svg">
<path d="M14.6229 17.8966L3.94287 14.9836M9.0009 7.99976C7.1969 10.7098 5.0309 11.4598 2.4179 11.9478C2.33121 11.9636 2.25015 12.0017 2.1827 12.0584C2.11525 12.1151 2.06375 12.1884 2.03326 12.2711C2.00278 12.3538 1.99437 12.443 2.00886 12.5299C2.02335 12.6168 2.06024 12.6984 2.1159 12.7668L9.4359 21.6498C9.58458 21.8077 9.78057 21.913 9.99431 21.9498C10.2081 21.9866 10.428 21.9529 10.6209 21.8538C12.7359 20.4048 16.0009 16.7918 16.0009 14.9998M18.3769 2.62173C18.574 2.42462 18.808 2.26826 19.0656 2.16158C19.3231 2.05491 19.5991 2 19.8779 2C20.1567 2 20.4327 2.05491 20.6902 2.16158C20.9478 2.26826 21.1818 2.42462 21.3789 2.62173C21.576 2.81885 21.7324 3.05286 21.839 3.3104C21.9457 3.56794 22.0006 3.84397 22.0006 4.12273C22.0006 4.4015 21.9457 4.67753 21.839 4.93507C21.7324 5.19261 21.576 5.42662 21.3789 5.62373L17.3609 9.64273C17.2672 9.7365 17.2145 9.86365 17.2145 9.99623C17.2145 10.1288 17.2672 10.256 17.3609 10.3497L18.3049 11.2937C18.7568 11.7457 19.0106 12.3586 19.0106 12.9977C19.0106 13.6368 18.7568 14.2498 18.3049 14.7017L17.3609 15.6457C17.2671 15.7395 17.14 15.7921 17.0074 15.7921C16.8748 15.7921 16.7477 15.7395 16.6539 15.6457L8.35489 7.34773C8.26115 7.25397 8.2085 7.12682 8.2085 6.99424C8.2085 6.86165 8.26115 6.7345 8.35489 6.64073L9.29889 5.69673C9.75084 5.24485 10.3638 4.99099 11.0029 4.99099C11.642 4.99099 12.2549 5.24485 12.7069 5.69673L13.6509 6.64073C13.7447 6.73447 13.8718 6.78713 14.0044 6.78713C14.137 6.78713 14.2641 6.73447 14.3579 6.64073L18.3769 2.62173Z" stroke="#09090B" stroke-width="2" stroke-linecap="round" stroke-linejoin="round"/>
</svg>
