<svg width="24" height="24" viewBox="0 0 24 24" fill="none" xmlns="http://www.w3.org/2000/svg">
<path d="M13.2344 20.2523L21.0004 12.3003M16.0005 6.00012L7.58651 14.5861C7.21157 14.9612 7.00094 15.4698 7.00094 16.0001C7.00094 16.5305 7.21157 17.0391 7.58651 17.4141C7.96156 17.7891 8.47018 17.9997 9.00051 17.9997C9.53084 17.9997 10.0395 17.7891 10.4145 17.4141L18.8285 8.82812C19.5784 8.07801 19.9997 7.06078 19.9997 6.00012C19.9997 4.93947 19.5784 3.92223 18.8285 3.17212C18.0784 2.42224 17.0612 2.00098 16.0005 2.00098C14.9399 2.00098 13.9226 2.42224 13.1725 3.17212L4.75751 11.7571C3.63219 12.8824 3 14.4087 3 16.0001C3 17.5916 3.63219 19.1178 4.75751 20.2431C5.88282 21.3684 7.40907 22.0006 9.00051 22.0006C10.5919 22.0006 12.1182 21.3684 13.2435 20.2431" stroke="#09090B" stroke-width="2" stroke-linecap="round" stroke-linejoin="round"/>
</svg>
