<svg width="24" height="24" viewBox="0 0 24 24" fill="none" xmlns="http://www.w3.org/2000/svg">
<path d="M10.0005 10L3.8435 16.162C3.6109 16.3944 3.43916 16.6805 3.3435 16.995L2.0215 21.355C1.99528 21.4415 1.993 21.5335 2.0149 21.6212C2.0368 21.7089 2.08207 21.789 2.14588 21.853C2.20969 21.917 2.28966 21.9626 2.37729 21.9847C2.46491 22.0069 2.55691 22.0049 2.6435 21.979L7.0015 20.656C7.31497 20.5599 7.6 20.3882 7.8315 20.156L14.0005 13.982M12.8296 7.17202L17.1886 2.82602C17.4503 2.56429 17.761 2.35668 18.103 2.21504C18.4449 2.07339 18.8115 2.00049 19.1816 2.00049C19.5517 2.00049 19.9182 2.07339 20.2602 2.21504C20.6022 2.35668 20.9129 2.56429 21.1746 2.82602C21.4363 3.08774 21.6439 3.39845 21.7856 3.74041C21.9272 4.08237 22.0001 4.44888 22.0001 4.81902C22.0001 5.18915 21.9272 5.55566 21.7856 5.89762C21.6439 6.23958 21.4363 6.55029 21.1746 6.81202L16.8216 11.165M2.00049 2L22.0005 22" stroke="#09090B" stroke-width="2" stroke-linecap="round" stroke-linejoin="round"/>
</svg>
