<svg width="24" height="24" viewBox="0 0 24 24" fill="none" xmlns="http://www.w3.org/2000/svg">
<g clip-path="url(#clip0_682_11677)">
<path d="M12.9998 6.9998L8.6998 2.6998C8.24818 2.25036 7.63695 1.99805 6.9998 1.99805C6.36265 1.99805 5.75143 2.25036 5.2998 2.6998L2.6998 5.2998C2.25036 5.75143 1.99805 6.36265 1.99805 6.9998C1.99805 7.63695 2.25036 8.24818 2.6998 8.6998L6.9998 12.9998M7.99976 5.99976L9.99976 3.99976M17.9998 15.9998L19.9998 13.9998M16.9998 10.9998L21.2998 15.2998C22.2398 16.2398 22.2398 17.7598 21.2998 18.6998L18.6998 21.2998C17.7598 22.2398 16.2398 22.2398 15.2998 21.2998L10.9998 16.9998M14.9998 4.99976L18.9998 8.99976M21.1737 6.81165C21.7024 6.28307 21.9995 5.56612 21.9996 4.8185C21.9997 4.07089 21.7028 3.35386 21.1742 2.82515C20.6456 2.29644 19.9287 1.99936 19.181 1.99927C18.4334 1.99917 17.7164 2.29607 17.1877 2.82465L3.84169 16.1736C3.60951 16.4051 3.4378 16.6902 3.34169 17.0036L2.02069 21.3556C1.99485 21.4421 1.99289 21.534 2.01504 21.6215C2.03719 21.709 2.08261 21.7889 2.14649 21.8527C2.21036 21.9164 2.29031 21.9617 2.37785 21.9837C2.46539 22.0057 2.55725 22.0036 2.64369 21.9776L6.99669 20.6576C7.30986 20.5624 7.59486 20.3917 7.82669 20.1606L21.1737 6.81165Z" stroke="#09090B" stroke-width="2" stroke-linecap="round" stroke-linejoin="round"/>
</g>
<defs>
<clipPath id="clip0_682_11677">
<rect width="24" height="24" fill="white"/>
</clipPath>
</defs>
</svg>
