<svg width="24" height="24" viewBox="0 0 24 24" fill="none" xmlns="http://www.w3.org/2000/svg">
<path d="M10.8309 2.37989C11.1716 2.13418 11.5809 2.00195 12.0009 2.00195C12.4209 2.00195 12.8303 2.13418 13.1709 2.37989L21.1709 8.11989C21.5161 8.36854 21.7729 8.72077 21.9042 9.1254C22.0355 9.53002 22.0343 9.96596 21.9009 10.3699L18.8609 19.6299C18.7285 20.029 18.4736 20.3762 18.1325 20.6221C17.7914 20.8681 17.3814 21.0003 16.9609 20.9999H7.04091C6.6204 21.0003 6.21046 20.8681 5.86936 20.6221C5.52827 20.3762 5.27338 20.029 5.14091 19.6299L2.10091 10.3699C1.9675 9.96596 1.96634 9.53002 2.09762 9.1254C2.2289 8.72077 2.48577 8.36854 2.83091 8.11989L10.8309 2.37989Z" stroke="#09090B" stroke-width="2" stroke-linecap="round" stroke-linejoin="round"/>
</svg>
