<svg width="24" height="24" viewBox="0 0 24 24" fill="none" xmlns="http://www.w3.org/2000/svg">
<path d="M1.99951 13.9998H21.9995M5.99951 13.9998V17.9998M9.99951 13.9998V17.9998M13.9995 13.9998V17.9998M17.9995 13.9998V17.9998M18.4995 7.99972C17.0995 7.99972 15.8995 7.19972 15.2995 5.99972C14.7315 4.42436 13.6076 3.11072 12.1392 2.30574C10.6707 1.50076 8.95876 1.25987 7.32517 1.62835C5.69157 1.99682 4.24882 2.9493 3.26811 4.30673C2.2874 5.66416 1.83628 7.33306 1.99953 8.99972V19.9997C1.99953 20.5301 2.21025 21.0389 2.58532 21.4139C2.96039 21.789 3.4691 21.9997 3.99953 21.9997H19.9995C20.53 21.9997 21.0387 21.789 21.4137 21.4139C21.7888 21.0389 21.9995 20.5301 21.9995 19.9997V11.4997C21.9995 9.59972 20.3995 7.99972 18.4995 7.99972Z" stroke="#09090B" stroke-width="2" stroke-linecap="round" stroke-linejoin="round"/>
</svg>
