<svg width="24" height="24" viewBox="0 0 24 24" fill="none" xmlns="http://www.w3.org/2000/svg">
<path d="M14.5314 12.4693L6.61937 20.3803C6.22154 20.7781 5.68198 21.0016 5.11937 21.0016C4.55676 21.0016 4.01719 20.7781 3.61937 20.3803C3.22154 19.9824 2.99805 19.4429 2.99805 18.8803C2.99805 18.3177 3.22154 17.7781 3.61937 17.3803L11.5314 9.46826M15.6864 4.31414C14.1766 3.37363 12.4836 2.76616 10.7203 2.53232C8.95698 2.29848 7.16408 2.44365 5.46139 2.95814C5.3098 3.05464 5.18702 3.19021 5.10596 3.35057C5.02489 3.51094 4.98853 3.69019 5.00071 3.86947C5.01289 4.04876 5.07315 4.22144 5.17516 4.36938C5.27716 4.51731 5.41715 4.63503 5.58039 4.71014C7.85779 5.48797 9.99214 6.63419 11.8984 8.10314M19.6863 8.31421C20.6268 9.82398 21.2342 11.5171 21.468 13.2803C21.7019 15.0436 21.5567 16.8365 21.0423 18.5392C20.9457 18.6905 20.8102 18.8131 20.65 18.894C20.4897 18.9749 20.3106 19.0111 20.1315 18.999C19.9524 18.9868 19.7799 18.9266 19.6321 18.8248C19.4842 18.723 19.3665 18.5832 19.2913 18.4202C18.5136 16.1425 17.3674 14.0078 15.8983 12.1012M17.7004 3.70016C17.5135 3.51694 17.2622 3.41431 17.0004 3.41431C16.7387 3.41431 16.4873 3.51694 16.3004 3.70016L11.7004 8.30016C11.5172 8.48709 11.4146 8.73841 11.4146 9.00016C11.4146 9.26192 11.5172 9.51323 11.7004 9.70016L14.3004 12.3002C14.4873 12.4834 14.7387 12.586 15.0004 12.586C15.2622 12.586 15.5135 12.4834 15.7004 12.3002L20.3004 7.70016C20.4836 7.51323 20.5863 7.26192 20.5863 7.00016C20.5863 6.73841 20.4836 6.48709 20.3004 6.30016L17.7004 3.70016Z" stroke="#09090B" stroke-width="2" stroke-linecap="round" stroke-linejoin="round"/>
</svg>
