<svg width="24" height="24" viewBox="0 0 24 24" fill="none" xmlns="http://www.w3.org/2000/svg">
<path d="M2 10H8M8 10V4M8 10L2 4M21 10V7C21 6.46957 20.7893 5.96086 20.4142 5.58579C20.0391 5.21071 19.5304 5 19 5H12M3 14V16C3 16.5304 3.21071 17.0391 3.58579 17.4142C3.96086 17.7893 4.46957 18 5 18H8M13 14H21C21.5523 14 22 14.4477 22 15V20C22 20.5523 21.5523 21 21 21H13C12.4477 21 12 20.5523 12 20V15C12 14.4477 12.4477 14 13 14Z" stroke="#09090B" stroke-width="2" stroke-linecap="round" stroke-linejoin="round"/>
</svg>
