<svg width="24" height="24" viewBox="0 0 24 24" fill="none" xmlns="http://www.w3.org/2000/svg">
<path d="M2 22.0002H22M6.36 17.4001L4 17.0001L2 13.0001L3.1 12.4501C3.37916 12.3095 3.6874 12.2362 4 12.2362C4.3126 12.2362 4.62084 12.3095 4.9 12.4501L5.07 12.5501C5.34916 12.6908 5.6574 12.7641 5.97 12.7641C6.2826 12.7641 6.59084 12.6908 6.87 12.5501L8 12.0001L5 6.00012L5.9 5.55012C6.23267 5.38647 6.60429 5.31851 6.97335 5.35382C7.34242 5.38914 7.6944 5.52635 7.99 5.75012L12.01 8.75012C12.3066 8.97584 12.6604 9.11417 13.0315 9.14951C13.4025 9.18484 13.7761 9.11579 14.11 8.95012L18.3 6.89012C18.8354 6.62021 19.4523 6.5596 20.03 6.72012L21 7.00012C21.2004 7.05578 21.3859 7.1554 21.543 7.29173C21.7001 7.42806 21.8248 7.59768 21.9082 7.78827C21.9915 7.97885 22.0313 8.1856 22.0247 8.3935C22.0181 8.6014 21.9652 8.80521 21.87 8.99012L21.49 9.75012C21.26 10.2101 20.89 10.5901 20.42 10.8301L7.58 17.2001C7.20245 17.3871 6.77547 17.4501 6.36 17.3801V17.4001Z" stroke="#09090B" stroke-width="2" stroke-linecap="round" stroke-linejoin="round"/>
</svg>
