<svg width="24" height="24" viewBox="0 0 24 24" fill="none" xmlns="http://www.w3.org/2000/svg">
<path d="M12.9999 16C13.5793 15.9992 14.1466 16.1663 14.6332 16.481C15.1197 16.7958 15.5047 17.2446 15.7416 17.7735C15.9785 18.3023 16.0572 18.8884 15.9682 19.461C15.8791 20.0336 15.6262 20.5681 15.2399 21M17.9999 12H18.0099M17.9999 20.9999H9.99988C8.93901 20.9999 7.9216 20.5785 7.17145 19.8283C6.42131 19.0782 5.99988 18.0608 5.99988 16.9999C5.99988 15.1434 6.73738 13.3629 8.05013 12.0502C9.36289 10.7374 11.1434 9.99992 12.9999 9.99992H13.1999L9.59988 6.39992C9.41603 6.21607 9.27019 5.99781 9.17069 5.75759C9.07119 5.51738 9.01998 5.25992 9.01998 4.99992C9.01998 4.47482 9.22858 3.97122 9.59988 3.59992C9.97118 3.22862 10.4748 3.02002 10.9999 3.02002C11.2599 3.02002 11.5173 3.07123 11.7576 3.17073C11.9978 3.27023 12.216 3.41607 12.3999 3.59992L15.7999 6.99992H15.9999M15.9999 6.99992C19.2999 6.99992 21.9999 9.69992 21.9999 12.9999V13.9999C21.9999 14.5304 21.7892 15.0391 21.4141 15.4141C21.039 15.7892 20.5303 15.9999 19.9999 15.9999H18.9999C18.2042 15.9999 17.4412 16.316 16.8786 16.8786C16.3159 17.4412 15.9999 18.2043 15.9999 18.9999M15.9999 6.99992V4C15.9999 3.46957 16.2106 2.96086 16.5857 2.58579C16.9607 2.21071 17.4694 2 17.9999 2C18.5303 2 19.039 2.21071 19.4141 2.58579C19.7892 2.96086 19.9999 3.46957 19.9999 4V8.54M7.6119 12.524C7.3307 12.0263 6.91318 11.6193 6.40849 11.351C5.90379 11.0826 5.33293 10.964 4.76311 11.0091C4.19329 11.0543 3.64822 11.2613 3.19207 11.6057C2.73592 11.9502 2.38767 12.4178 2.18834 12.9536C1.989 13.4893 1.94686 14.0708 2.06688 14.6297C2.1869 15.1885 2.46409 15.7015 2.86581 16.1081C3.26753 16.5148 3.77706 16.7982 4.33443 16.925C4.89179 17.0518 5.47378 17.0168 6.0119 16.8239" stroke="#09090B" stroke-width="2" stroke-linecap="round" stroke-linejoin="round"/>
</svg>
