<svg width="24" height="24" viewBox="0 0 24 24" fill="none" xmlns="http://www.w3.org/2000/svg">
<path d="M6.99036 3.3398C8.89779 2.23703 11.116 1.79508 13.3005 2.0826C15.4849 2.37012 17.5132 3.37102 19.0704 4.9298L13.4103 10.5897M4.00037 5.99976H4.01037M2.29035 9.61985C1.91544 11.1469 1.90593 12.7409 2.26258 14.2723C2.61923 15.8037 3.33198 17.2295 4.34299 18.4338C5.35399 19.6381 6.63474 20.587 8.08125 21.2035C9.52776 21.82 11.0993 22.0867 12.6682 21.9819C14.2371 21.8772 15.7592 21.4039 17.1109 20.6006C18.4626 19.7972 19.6058 18.6864 20.4478 17.3584C21.2897 16.0304 21.8065 14.5225 21.9564 12.9573C22.1063 11.392 21.885 9.81351 21.3104 8.34985M16.2403 7.75968C15.6649 7.18084 14.9773 6.72551 14.2198 6.42155C13.4623 6.11758 12.6507 5.97138 11.8347 5.99188C11.0187 6.01238 10.2155 6.19916 9.47421 6.54078C8.73291 6.8824 8.0691 7.37169 7.52341 7.97869C6.97771 8.5857 6.56161 9.29767 6.30056 10.071C6.0395 10.8444 5.93899 11.6629 6.00516 12.4764C6.07134 13.29 6.30281 14.0815 6.68542 14.8025C7.06803 15.5235 7.59372 16.1588 8.23034 16.6697M12.0004 17.9998H12.0104M17.9904 11.6597C18.0448 12.611 17.8718 13.5617 17.4857 14.4329C17.0997 15.3041 16.5117 16.0709 15.7704 16.6697M14.0004 11.9998C14.0004 13.1043 13.1049 13.9998 12.0004 13.9998C10.8958 13.9998 10.0004 13.1043 10.0004 11.9998C10.0004 10.8952 10.8958 9.99976 12.0004 9.99976C13.1049 9.99976 14.0004 10.8952 14.0004 11.9998Z" stroke="#09090B" stroke-width="2" stroke-linecap="round" stroke-linejoin="round"/>
</svg>
