<svg width="24" height="24" viewBox="0 0 24 24" fill="none" xmlns="http://www.w3.org/2000/svg">
<path d="M11.9991 12.0002H12.0091M7.49913 4.20013C7.19913 3.70013 6.59913 3.50013 6.19913 3.80013C3.89913 5.50013 2.29913 8.10013 1.99913 11.0001C1.89913 11.5001 2.39913 12.0001 2.99913 12.0001H7.99913C7.99913 10.5001 8.79913 9.20013 9.99913 8.60013C8.89913 6.70013 7.99913 5.10013 7.49913 4.20013ZM20.9991 12.0002C21.5991 12.0002 21.9991 11.6002 21.9991 11.0002C21.6991 8.1002 20.1991 5.5002 17.8991 3.9002C17.4991 3.6002 16.7991 3.7002 16.5991 4.2002C15.9991 5.1002 15.0991 6.7002 13.9991 8.5002C15.1991 9.2002 15.9991 10.5002 15.9991 12.0002H20.9991ZM7.49917 19.8002C7.19917 20.3002 7.39917 20.9002 7.89917 21.1002C10.4992 22.3002 13.4992 22.3002 16.0992 21.1002C16.5992 20.9002 16.7992 20.3002 16.4992 19.8002C15.9992 18.9002 15.0992 17.3002 13.9992 15.5002C12.7992 16.2002 11.1992 16.2002 9.99917 15.5002C8.89917 17.3002 7.99917 18.9002 7.49917 19.8002Z" stroke="#09090B" stroke-width="2" stroke-linecap="round" stroke-linejoin="round"/>
</svg>
