<svg width="24" height="24" viewBox="0 0 24 24" fill="none" xmlns="http://www.w3.org/2000/svg">
<path d="M4.89961 19.0999C0.999609 15.1999 0.999609 8.7999 4.89961 4.8999M7.79958 16.2C5.49958 13.9 5.49958 10.1 7.79958 7.69995M16.1996 7.80005C18.4996 10.1 18.4996 13.9 16.1996 16.3M19.0996 4.8999C22.9996 8.7999 22.9996 15.0999 19.0996 18.9999M13.9996 12C13.9996 13.1046 13.1042 14 11.9996 14C10.8951 14 9.99963 13.1046 9.99963 12C9.99963 10.8954 10.8951 10 11.9996 10C13.1042 10 13.9996 10.8954 13.9996 12Z" stroke="#09090B" stroke-width="2" stroke-linecap="round" stroke-linejoin="round"/>
</svg>
