<svg width="24" height="24" viewBox="0 0 24 24" fill="none" xmlns="http://www.w3.org/2000/svg">
<path d="M11.989 11.22C13.001 10.002 13.999 9 13.999 8C13.999 7.46957 13.7883 6.96086 13.4132 6.58579C13.0382 6.21071 12.5295 6 11.999 6C11.4686 6 10.9599 6.21071 10.5848 6.58579C10.2097 6.96086 9.99902 7.46957 9.99902 8C9.99902 9 10.999 9.997 11.999 11.22L9.34912 14.53M11.999 18L14.569 14.5M11.999 18L14.645 21.602C14.8016 21.8119 15.0343 21.9521 15.2931 21.9923C15.5519 22.0325 15.8161 21.9695 16.029 21.817L17.923 20.457C18.0326 20.3783 18.1251 20.2782 18.195 20.1628C18.2649 20.0473 18.3108 19.9189 18.3297 19.7853C18.3487 19.6517 18.3404 19.5157 18.3054 19.3853C18.2704 19.255 18.2094 19.1331 18.126 19.027L14.569 14.5M11.999 18L9.32 21.593C9.16299 21.8043 8.92899 21.9452 8.66876 21.9851C8.40853 22.025 8.14308 21.9606 7.93 21.806L6.065 20.453C5.95656 20.3743 5.86504 20.2746 5.79588 20.1599C5.72671 20.0451 5.68132 19.9176 5.66238 19.785C5.64345 19.6523 5.65136 19.5173 5.68565 19.3877C5.71994 19.2582 5.77991 19.1369 5.862 19.031L9.34912 14.53M14.569 14.5C16.221 12.235 17.994 10.22 17.999 7C17.999 5.67392 17.3669 4.40215 16.2416 3.46447C15.1164 2.52678 13.5903 2 11.999 2C10.4077 2 8.88158 2.52678 7.75636 3.46447C6.63114 4.40215 5.999 5.67392 5.999 7C5.999 10.221 7.72712 12.246 9.34912 14.53M6.24194 9.0159C6.88547 8.08574 7.74481 7.32536 8.7464 6.79987C9.74799 6.27438 10.862 5.99942 11.9931 5.99854C13.1242 5.99765 14.2386 6.27087 15.241 6.79479C16.2434 7.31872 17.104 8.07774 17.7489 9.0069" stroke="#09090B" stroke-width="2" stroke-linecap="round" stroke-linejoin="round"/>
</svg>
