<svg width="24" height="24" viewBox="0 0 24 24" fill="none" xmlns="http://www.w3.org/2000/svg">
<path d="M6.01 18.0002H6M10.01 18.0002H10M15 10.0002V14.0002M17.8401 7.17022C17.4686 6.79831 17.0274 6.50328 16.5418 6.30198C16.0562 6.10068 15.5357 5.99707 15.0101 5.99707C14.4844 5.99707 13.9639 6.10068 13.4783 6.30198C12.9927 6.50328 12.5515 6.79831 12.1801 7.17022M20.66 4.34032C19.1598 2.84116 17.1258 1.99902 15.005 1.99902C12.8842 1.99902 10.8501 2.84116 9.34998 4.34032M4 14.0002H20C21.1046 14.0002 22 14.8957 22 16.0002V20.0002C22 21.1048 21.1046 22.0002 20 22.0002H4C2.89543 22.0002 2 21.1048 2 20.0002V16.0002C2 14.8957 2.89543 14.0002 4 14.0002Z" stroke="#09090B" stroke-width="2" stroke-linecap="round" stroke-linejoin="round"/>
</svg>
