<svg width="24" height="24" viewBox="0 0 24 24" fill="none" xmlns="http://www.w3.org/2000/svg">
<path d="M9 19C9 20.6569 7.65685 22 6 22C4.34315 22 3 20.6569 3 19C3 17.3431 4.34315 16 6 16C7.65685 16 9 17.3431 9 19ZM9 19L17.5 19C17.9 19 18.4 18.9 18.8 18.8M5.20001 5.19995C4.44953 5.5077 3.82814 6.06849 3.44182 6.78669C3.0555 7.5049 2.92817 8.33602 3.08156 9.13833C3.23494 9.94063 3.65953 10.6644 4.28292 11.1863C4.90631 11.7081 5.68988 11.9957 6.50001 12H12M2 2L22 22M21 15.3C20.9521 14.4404 20.5891 13.6285 19.9803 13.0197C19.3715 12.4109 18.5597 12.0479 17.7 12M15 5H10.7M15 5C15 6.65685 16.3431 8 18 8C19.6569 8 21 6.65685 21 5C21 3.34315 19.6569 2 18 2C16.3431 2 15 3.34315 15 5Z" stroke="#09090B" stroke-width="2" stroke-linecap="round" stroke-linejoin="round"/>
</svg>
