<svg width="24" height="24" viewBox="0 0 24 24" fill="none" xmlns="http://www.w3.org/2000/svg">
<path d="M2.37 11.2232L10.742 4.44617C11.098 4.15813 11.5421 4.00098 12 4.00098C12.4579 4.00098 12.902 4.15813 13.258 4.44617L21.629 11.2232M21 15.0002C21.2652 15.0002 21.5196 15.1056 21.7071 15.2931C21.8946 15.4807 22 15.735 22 16.0002V18.0002C22 18.2655 21.8946 18.5198 21.7071 18.7074C21.5196 18.8949 21.2652 19.0002 21 19.0002H15.75M21 15.0002C21.5523 15.0002 22 14.5525 22 14.0002V12.0002C22 11.448 21.5523 11.0002 21 11.0002H3C2.44772 11.0002 2 11.448 2 12.0002V14.0002C2 14.5525 2.44772 15.0002 3 15.0002M21 15.0002H3M3 15.0002C2.73478 15.0002 2.48043 15.1056 2.29289 15.2931C2.10536 15.4807 2 15.735 2 16.0002V18.0002C2 18.2655 2.10536 18.5198 2.29289 18.7074C2.48043 18.8949 2.73478 19.0002 3 19.0002H12M6.67004 15.0002L12.8 19.6002C13.0102 19.7578 13.2493 19.8725 13.5037 19.9377C13.7581 20.0029 14.0229 20.0173 14.2829 19.9801C14.5429 19.943 14.793 19.855 15.019 19.7212C15.245 19.5874 15.4425 19.4104 15.6 19.2002L18.75 15.0002" stroke="#09090B" stroke-width="2" stroke-linecap="round" stroke-linejoin="round"/>
</svg>
