<svg width="24" height="24" viewBox="0 0 24 24" fill="none" xmlns="http://www.w3.org/2000/svg">
<path d="M14 22.0002V18.0002C14 17.4698 13.7893 16.9611 13.4142 16.586C13.0391 16.211 12.5304 16.0002 12 16.0002C11.4696 16.0002 10.9609 16.211 10.5858 16.586C10.2107 16.9611 10 17.4698 10 18.0002V22.0002M18 10.0002L21.447 11.7242C21.6131 11.8072 21.7528 11.9348 21.8504 12.0927C21.9481 12.2506 21.9999 12.4326 22 12.6182V20.0002C22 20.5307 21.7893 21.0394 21.4142 21.4145C21.0391 21.7895 20.5304 22.0002 20 22.0002H4C3.46957 22.0002 2.96086 21.7895 2.58579 21.4145C2.21071 21.0394 2 20.5307 2 20.0002V12.6182C2.0001 12.4326 2.05188 12.2506 2.14955 12.0927C2.24722 11.9348 2.38692 11.8072 2.553 11.7242L6 10.0002M18 5.00024V22.0002M4 6.00026L11.106 2.44726C11.3836 2.30854 11.6897 2.23633 12 2.23633C12.3103 2.23633 12.6164 2.30854 12.894 2.44726L20 6.00026M6 5.00024V22.0002M14 9.00024C14 10.1048 13.1046 11.0002 12 11.0002C10.8954 11.0002 10 10.1048 10 9.00024C10 7.89567 10.8954 7.00024 12 7.00024C13.1046 7.00024 14 7.89567 14 9.00024Z" stroke="#09090B" stroke-width="2" stroke-linecap="round" stroke-linejoin="round"/>
</svg>
