<svg width="24" height="24" viewBox="0 0 24 24" fill="none" xmlns="http://www.w3.org/2000/svg">
<path d="M22.0007 12C22.0007 12.0948 21.9738 12.1875 21.9232 12.2675C21.8725 12.3476 21.8001 12.4115 21.7145 12.452L3.71451 20.952C3.62461 20.9956 3.52367 21.0112 3.42482 20.9966C3.32597 20.9821 3.23378 20.9381 3.16023 20.8705C3.08668 20.8029 3.03517 20.7147 3.01239 20.6174C2.98961 20.5202 2.99663 20.4183 3.03251 20.325L5.87451 12.698C6.04219 12.2478 6.04219 11.7523 5.87451 11.302L3.03151 3.67504C2.99544 3.58168 2.98834 3.47962 3.01113 3.38216C3.03392 3.28471 3.08554 3.19638 3.15927 3.1287C3.233 3.06102 3.32541 3.01712 3.42445 3.00273C3.52349 2.98834 3.62457 3.00413 3.71451 3.04804L21.7145 11.548C21.8001 11.5885 21.8725 11.6525 21.9232 11.7325C21.9738 11.8126 22.0007 11.9053 22.0007 12ZM22.0007 12L6.00049 12" stroke="#09090B" stroke-width="2" stroke-linecap="round" stroke-linejoin="round"/>
</svg>
