<svg width="24" height="24" viewBox="0 0 24 24" fill="none" xmlns="http://www.w3.org/2000/svg">
<path d="M2.05078 2.0498H4.05078L6.71078 14.4698C6.80836 14.9247 7.06145 15.3313 7.42649 15.6197C7.79153 15.908 8.24569 16.0602 8.71078 16.0498H18.4908C18.946 16.0491 19.3873 15.8931 19.7418 15.6076C20.0964 15.3222 20.3429 14.9243 20.4408 14.4798L22.0908 7.0498H5.12078M9.00073 20.9998C9.00073 21.552 8.55302 21.9998 8.00073 21.9998C7.44845 21.9998 7.00073 21.552 7.00073 20.9998C7.00073 20.4475 7.44845 19.9998 8.00073 19.9998C8.55302 19.9998 9.00073 20.4475 9.00073 20.9998ZM20.0007 20.9998C20.0007 21.552 19.553 21.9998 19.0007 21.9998C18.4484 21.9998 18.0007 21.552 18.0007 20.9998C18.0007 20.4475 18.4484 19.9998 19.0007 19.9998C19.553 19.9998 20.0007 20.4475 20.0007 20.9998Z" stroke="#09090B" stroke-width="2" stroke-linecap="round" stroke-linejoin="round"/>
</svg>
