<svg width="24" height="24" viewBox="0 0 24 24" fill="none" xmlns="http://www.w3.org/2000/svg">
<path d="M18 14L22 18M22 18L18 22M22 18H15.959C15.3036 17.9933 14.6599 17.8257 14.0844 17.5118C13.509 17.1979 13.0195 16.7474 12.659 16.2L12.3 15.75M18 2L22 6M22 6L18 10M22 6L16.027 6.00009C15.3805 5.99568 14.7426 6.14803 14.1679 6.4441C13.5931 6.74017 13.0987 7.17114 12.727 7.70009L7.273 16.3001C6.90127 16.829 6.40687 17.26 5.83215 17.5561C5.25742 17.8522 4.61949 18.0045 3.973 18.0001H2M2 6.0001H3.972C4.71746 5.99491 5.44954 6.19814 6.08564 6.58687C6.72174 6.9756 7.23655 7.53436 7.572 8.2001" stroke="#09090B" stroke-width="2" stroke-linecap="round" stroke-linejoin="round"/>
</svg>
