<svg width="24" height="24" viewBox="0 0 24 24" fill="none" xmlns="http://www.w3.org/2000/svg">
<path d="M11.999 13V21M11.999 3V6M17.999 6C18.5164 6.00025 19.0135 6.20096 19.386 6.56L21.693 8.78C21.7898 8.87328 21.8668 8.98512 21.9194 9.10883C21.972 9.23254 21.9991 9.36558 21.9991 9.5C21.9991 9.63442 21.972 9.76746 21.9194 9.89117C21.8668 10.0149 21.7898 10.1267 21.693 10.22L19.386 12.44C19.0135 12.799 18.5164 12.9998 17.999 13H5.99903C5.48166 12.9998 4.98453 12.799 4.61203 12.44L2.30603 10.22C2.20924 10.1267 2.13226 10.0149 2.07968 9.89117C2.0271 9.76746 2 9.63442 2 9.5C2 9.36558 2.0271 9.23254 2.07968 9.10883C2.13226 8.98512 2.20924 8.87328 2.30603 8.78L4.61203 6.56C4.98453 6.20096 5.48166 6.00025 5.99903 6H17.999Z" stroke="#09090B" stroke-width="2" stroke-linecap="round" stroke-linejoin="round"/>
</svg>
