<svg width="24" height="24" viewBox="0 0 24 24" fill="none" xmlns="http://www.w3.org/2000/svg">
<path d="M11 16.5861V19.0001C11 19.2653 10.8946 19.5197 10.7071 19.7072C10.5196 19.8948 10.2652 20.0001 10 20.0001H2L18.37 3.63011C18.7678 3.23228 19.3074 3.00879 19.87 3.00879C20.4326 3.00879 20.9722 3.23228 21.37 3.63011C21.7678 4.02793 21.9913 4.5675 21.9913 5.13011C21.9913 5.69272 21.7678 6.23228 21.37 6.63011L11.707 16.2931C11.5195 16.4806 11.2652 16.5861 11 16.5861ZM11 16.5861C10.7348 16.5861 10.4805 16.4806 10.293 16.2931L8 14.0001" stroke="#09090B" stroke-width="2" stroke-linecap="round" stroke-linejoin="round"/>
</svg>
