<svg width="24" height="24" viewBox="0 0 24 24" fill="none" xmlns="http://www.w3.org/2000/svg">
<path d="M21.9999 11.0003V12.0003C21.9898 14.0186 21.3691 15.9867 20.2196 17.6457C19.0701 19.3047 17.4454 20.577 15.5592 21.2954C13.6731 22.0137 11.6137 22.1445 9.65175 21.6706C7.68984 21.1966 5.91727 20.1401 4.56707 18.6399C3.21686 17.1396 2.35223 15.2659 2.08684 13.2651C1.82144 11.2643 2.1677 9.23 3.08011 7.42965C3.99251 5.62931 5.42835 4.14719 7.19885 3.17815C8.96935 2.20911 10.9917 1.79851 12.9999 2.00032M7.99988 14.0002C7.99988 14.0002 9.49988 16.0002 11.9999 16.0002C14.4999 16.0002 15.9999 14.0002 15.9999 14.0002M8.99988 9.00024H9.00988M14.9999 9.00024H15.0099M15.9999 5.00024H21.9999M18.9999 2.00024V8.00024" stroke="#09090B" stroke-width="2" stroke-linecap="round" stroke-linejoin="round"/>
</svg>
