<svg width="24" height="24" viewBox="0 0 24 24" fill="none" xmlns="http://www.w3.org/2000/svg">
<path d="M12 7V11M7.99801 9.00305C7.44133 9.74624 7.10262 10.6298 7.0198 11.5546C6.93699 12.4795 7.11336 13.4091 7.52914 14.2394C7.94493 15.0697 8.5837 15.7678 9.37388 16.2554C10.1641 16.7431 11.0744 17.0011 12.003 17.0005C12.9316 17 13.8416 16.7408 14.6312 16.2522C15.4208 15.7635 16.0587 15.0646 16.4734 14.2338C16.8882 13.403 17.0634 12.4732 16.9794 11.5484C16.8954 10.6237 16.5556 9.74055 15.998 8.99805M5 3H19C20.1046 3 21 3.89543 21 5V19C21 20.1046 20.1046 21 19 21H5C3.89543 21 3 20.1046 3 19V5C3 3.89543 3.89543 3 5 3Z" stroke="#09090B" stroke-width="2" stroke-linecap="round" stroke-linejoin="round"/>
</svg>
