<svg width="24" height="24" viewBox="0 0 24 24" fill="none" xmlns="http://www.w3.org/2000/svg">
<path d="M11.9998 18.338C11.6558 18.3373 11.3169 18.4211 11.0128 18.582L6.39585 21.01C6.30818 21.0564 6.20924 21.0773 6.1103 21.0703C6.01135 21.0632 5.91636 21.0286 5.83614 20.9702C5.75592 20.9119 5.69368 20.8322 5.6565 20.7402C5.61933 20.6483 5.6087 20.5477 5.62585 20.45L6.50685 15.311C6.56522 14.9717 6.54009 14.6233 6.43363 14.296C6.32718 13.9686 6.1426 13.6721 5.89585 13.432L2.15985 9.795C2.08844 9.72603 2.03784 9.6384 2.01381 9.54207C1.98978 9.44575 1.99328 9.34462 2.02393 9.25019C2.05457 9.15576 2.11111 9.07184 2.18712 9.00798C2.26313 8.94412 2.35555 8.9029 2.45385 8.889L7.61885 8.134C7.95916 8.08466 8.28236 7.95329 8.56058 7.7512C8.8388 7.54911 9.06369 7.28237 9.21585 6.974L11.5248 2.295C11.5687 2.20644 11.6363 2.13189 11.7203 2.07976C11.8042 2.02764 11.901 2.00001 11.9998 2" stroke="#09090B" stroke-width="2" stroke-linecap="round" stroke-linejoin="round"/>
</svg>
