<svg width="24" height="24" viewBox="0 0 24 24" fill="none" xmlns="http://www.w3.org/2000/svg">
<path d="M10.5 17H11.727C12.2244 16.9999 12.7039 16.8146 13.072 16.48L18 12M12 13.5L15.75 14M4.5 7.99979L15.08 2.93979C15.1999 2.88239 15.3301 2.84948 15.4629 2.84299C15.5957 2.8365 15.7285 2.85656 15.8535 2.902C15.9784 2.94744 16.0931 3.01735 16.1907 3.10763C16.2883 3.19791 16.367 3.30675 16.422 3.42779L18.5 7.99979M6 10V8M6 14V15M6 19V21M4 8H20C21.1046 8 22 8.89543 22 10V19C22 20.1046 21.1046 21 20 21H4C2.89543 21 2 20.1046 2 19V10C2 8.89543 2.89543 8 4 8Z" stroke="#09090B" stroke-width="2" stroke-linecap="round" stroke-linejoin="round"/>
</svg>
