<svg width="24" height="24" viewBox="0 0 24 24" fill="none" xmlns="http://www.w3.org/2000/svg">
<path d="M13.7299 3.99987C13.5541 3.6968 13.3017 3.44522 12.9981 3.27034C12.6945 3.09547 12.3503 3.00342 11.9999 3.00342C11.6495 3.00342 11.3053 3.09547 11.0017 3.27034C10.6981 3.44522 10.4457 3.6968 10.2699 3.99987L2.2699 17.9999C2.09445 18.3038 2.00204 18.6485 2.00195 18.9994C2.00186 19.3503 2.0941 19.695 2.26939 19.999C2.44468 20.303 2.69687 20.5555 3.00062 20.7312C3.30437 20.9068 3.649 20.9995 3.9999 20.9999H19.9999C20.3508 20.9995 20.6954 20.9068 20.9992 20.7312C21.3029 20.5555 21.5551 20.303 21.7304 19.999C21.9057 19.695 21.9979 19.3503 21.9979 18.9994C21.9978 18.6485 21.9054 18.3038 21.7299 17.9999L13.7299 3.99987Z" stroke="#09090B" stroke-width="2" stroke-linecap="round" stroke-linejoin="round"/>
</svg>
