<svg width="24" height="24" viewBox="0 0 24 24" fill="none" xmlns="http://www.w3.org/2000/svg">
<path d="M2 20.9999C1.99986 19.7061 2.31352 18.4316 2.91408 17.2856C3.51464 16.1396 4.38419 15.1564 5.44815 14.4202C6.51212 13.6841 7.73876 13.2169 9.02288 13.0589C10.307 12.9009 11.6103 13.0567 12.821 13.5129M21.378 16.6261C21.7763 16.2278 22.0001 15.6875 22.0001 15.1241C22.0001 14.5608 21.7763 14.0205 21.378 13.6221C20.9796 13.2238 20.4393 13 19.876 13C19.3126 13 18.7723 13.2238 18.374 13.6221L14.364 17.6341C14.1262 17.8718 13.9522 18.1655 13.858 18.4881L13.021 21.3581C12.9959 21.4442 12.9944 21.5354 13.0166 21.6222C13.0389 21.7091 13.084 21.7883 13.1474 21.8517C13.2108 21.9151 13.2901 21.9603 13.3769 21.9825C13.4637 22.0048 13.5549 22.0032 13.641 21.9781L16.511 21.1411C16.8336 21.0469 17.1274 20.8729 17.365 20.6351L21.378 16.6261ZM15 8C15 10.7614 12.7614 13 10 13C7.23858 13 5 10.7614 5 8C5 5.23858 7.23858 3 10 3C12.7614 3 15 5.23858 15 8Z" stroke="#09090B" stroke-width="2" stroke-linecap="round" stroke-linejoin="round"/>
</svg>
