<svg width="24" height="24" viewBox="0 0 24 24" fill="none" xmlns="http://www.w3.org/2000/svg">
<path d="M15.9999 2L13.6999 4.3C13.1502 4.86079 12.8423 5.61474 12.8423 6.4C12.8423 7.18526 13.1502 7.93921 13.6999 8.5L15.4999 10.3C16.0606 10.8497 16.8146 11.1576 17.5999 11.1576C18.3851 11.1576 19.1391 10.8497 19.6999 10.3L21.9999 8M14.9997 14.9998L3.29967 3.2998C2.90056 3.69086 2.58348 4.15762 2.36702 4.67276C2.15056 5.18789 2.03906 5.74104 2.03906 6.2998C2.03906 6.85857 2.15056 7.41172 2.36702 7.92685C2.58348 8.44199 2.90056 8.90875 3.29967 9.2998L10.5997 16.5998C11.2997 17.2998 12.5997 17.2998 13.3997 16.5998L14.9997 14.9998ZM14.9997 14.9998L21.9997 21.9998M2.09985 21.8L8.49985 15.5M18.9998 5L11.9998 12" stroke="#09090B" stroke-width="2" stroke-linecap="round" stroke-linejoin="round"/>
</svg>
