<svg width="24" height="24" viewBox="0 0 24 24" fill="none" xmlns="http://www.w3.org/2000/svg">
<path d="M16.0002 8C20.0002 8 22.0002 6 22.0002 2C18.0002 2 16.0002 4 16.0002 8ZM16.0002 8C13.5002 12.5 12.9002 15.18 12.0002 22C11.885 18.1403 10.9307 14.352 9.20386 10.8982C7.47698 7.44442 5.01885 4.40804 2.00024 2M17.4101 3.58989C15.335 2.25496 12.8395 1.73438 10.4037 2.12826C7.96787 2.52215 5.76367 3.80268 4.21499 5.72361C2.6663 7.64454 1.88249 10.0702 2.01429 12.5342C2.14608 14.9981 3.18418 17.3263 4.92894 19.0711C6.6737 20.8159 9.00193 21.854 11.4659 21.9858C13.9298 22.1176 16.3555 21.3337 18.2764 19.7851C20.1974 18.2364 21.4779 16.0322 21.8718 13.5963C22.2657 11.1605 21.7451 8.66506 20.4101 6.58989" stroke="#09090B" stroke-width="2" stroke-linecap="round" stroke-linejoin="round"/>
</svg>
