<svg width="24" height="24" viewBox="0 0 24 24" fill="none" xmlns="http://www.w3.org/2000/svg">
<path d="M17 17H12C10.91 16.98 10.06 17.92 9.49998 18.9C9.2439 19.355 8.90071 19.7552 8.48999 20.0776C8.07927 20.4 7.60908 20.6383 7.10625 20.779C6.60342 20.9197 6.0778 20.9599 5.55941 20.8975C5.04102 20.835 4.54001 20.6711 4.08498 20.415C3.62995 20.1589 3.22981 19.8157 2.90742 19.405C2.58502 18.9943 2.34668 18.5241 2.206 18.0213C2.06531 17.5184 2.02505 16.9928 2.0875 16.4744C2.14996 15.956 2.3139 15.455 2.56998 15M9 3.40013C9.42001 2.91318 9.95123 2.53468 10.5486 2.29669C11.146 2.05871 11.792 1.96827 12.4318 2.03303C13.0716 2.0978 13.6863 2.31586 14.2239 2.66873C14.7615 3.02161 15.2061 3.49889 15.52 4.06013M6 16.9999L9.1 11.1999C9.2539 10.8817 9.33855 10.5344 9.34838 10.181C9.3582 9.82765 9.29298 9.47621 9.157 9.1499M20.3 20.2998C19.6233 20.7635 18.8203 21.0078 18 20.9998M18.6 13C19.4529 13.1308 20.2407 13.534 20.8457 14.1492C21.4507 14.7645 21.8405 15.559 21.957 16.414M12 6L12.6 7M2 2L22 22" stroke="#09090B" stroke-width="2" stroke-linecap="round" stroke-linejoin="round"/>
</svg>
