<svg width="24" height="24" viewBox="0 0 24 24" fill="none" xmlns="http://www.w3.org/2000/svg">
<g clip-path="url(#clip0_147_3857)">
<path d="M12 5.99999C15.87 5.99999 19 9.12999 19 13C19 13.84 18.84 14.65 18.57 15.4L20.09 16.92C20.67 15.73 21 14.41 21 13C21 8.02999 16.97 3.99999 12 3.99999C10.59 3.99999 9.27 4.32999 8.08 4.90999L9.6 6.42999C10.35 6.15999 11.16 5.99999 12 5.99999ZM22 5.71999L17.4 1.85999L16.11 3.38999L20.71 7.24999L22 5.71999ZM2.92 2.28999L1.65 3.56999L2.98 4.89999L1.87 5.82999L3.29 7.24999L4.4 6.30999L5.2 7.10999C3.83 8.68999 3 10.75 3 13C3 17.97 7.02 22 12 22C14.25 22 16.31 21.17 17.89 19.8L20.09 22L21.36 20.73L3.89 3.26999L2.92 2.28999ZM16.47 18.39C15.26 19.39 13.7 20 12 20C8.13 20 5 16.87 5 13C5 11.3 5.61 9.73998 6.61 8.52998L16.47 18.39ZM8.02 3.27999L6.6 1.85999L5.74 2.56999L7.16 3.98999L8.02 3.27999Z" fill="#323232"/>
</g>
<defs>
<clipPath id="clip0_147_3857">
<rect width="24" height="24" fill="white"/>
</clipPath>
</defs>
</svg>
