<svg width="24" height="24" viewBox="0 0 24 24" fill="none" xmlns="http://www.w3.org/2000/svg">
<g clip-path="url(#clip0_147_6115)">
<path d="M13.1272 14.56L14.5572 13.13L20.9972 19.573L19.5702 21L13.1272 14.56ZM17.4202 8.83001L20.2802 5.97001C16.3302 2.02001 9.93023 2.01001 5.98023 5.95001C9.91023 4.65001 14.2902 5.70001 17.4202 8.83001ZM5.95023 5.98001C2.01023 9.93001 2.02023 16.33 5.97023 20.28L8.83023 17.42C5.70023 14.29 4.65023 9.91001 5.95023 5.98001ZM5.97023 5.96001L5.96023 5.97001C5.58023 8.98001 7.13023 12.85 10.2602 15.99L15.9902 10.26C12.8602 7.13001 8.98023 5.58001 5.97023 5.96001Z" fill="#323232"/>
</g>
<defs>
<clipPath id="clip0_147_6115">
<rect width="24" height="24" fill="white"/>
</clipPath>
</defs>
</svg>
