<svg width="24" height="24" viewBox="0 0 24 24" fill="none" xmlns="http://www.w3.org/2000/svg">
<g clip-path="url(#clip0_147_5148)">
<path d="M2 22L16 17L7 8L2 22Z" fill="#323232"/>
<path d="M14.5302 12.53L20.1202 6.94001C20.6102 6.45001 21.4002 6.45001 21.8902 6.94001L22.4802 7.53001L23.5402 6.47001L22.9502 5.88001C21.8802 4.81001 20.1302 4.81001 19.0602 5.88001L13.4702 11.47L14.5302 12.53Z" fill="#323232"/>
<path d="M10.0602 6.88002L9.47021 7.47002L10.5302 8.53002L11.1202 7.94002C12.1902 6.87002 12.1902 5.12002 11.1202 4.05002L10.5302 3.46002L9.47021 4.53002L10.0602 5.12002C10.5402 5.60002 10.5402 6.40002 10.0602 6.88002Z" fill="#323232"/>
<path d="M17.0602 11.88L15.4702 13.47L16.5302 14.53L18.1202 12.94C18.6102 12.45 19.4002 12.45 19.8902 12.94L21.5002 14.55L22.5602 13.49L20.9502 11.88C19.8702 10.81 18.1302 10.81 17.0602 11.88Z" fill="#323232"/>
<path d="M15.0602 5.88002L11.4702 9.47002L12.5302 10.53L16.1202 6.94002C17.1902 5.87002 17.1902 4.12002 16.1202 3.05002L14.5302 1.46002L13.4702 2.52002L15.0602 4.11002C15.5402 4.60002 15.5402 5.40002 15.0602 5.88002Z" fill="#323232"/>
</g>
<defs>
<clipPath id="clip0_147_5148">
<rect width="24" height="24" fill="white"/>
</clipPath>
</defs>
</svg>
