<svg width="24" height="24" viewBox="0 0 24 24" fill="none" xmlns="http://www.w3.org/2000/svg">
<g clip-path="url(#clip0_147_6258)">
<path d="M6.00014 18C7.10014 18 8.00014 18.9 8.00014 20C8.00014 21.1 7.10014 22 6.00014 22C4.90014 22 4.00014 21.1 4.00014 20C4.00014 18.9 4.90014 18 6.00014 18ZM18.6501 3C16.9901 3 16.1101 4.27 15.4701 5.03L11.9701 9.14L17.0001 14.17V6.27C17.5801 5.59 17.9701 5 18.6501 5C19.4201 5 20.0001 5.66 20.0001 6.48V7H22.0001V6.48C22.0001 4.56 20.5201 3 18.6501 3ZM10.6701 10.67L2.81014 2.81L1.39014 4.22L9.36014 12.19L6.70014 15.31C6.15014 15.96 6.61014 16.96 7.46014 16.96H14.1201L15.2901 18.13C14.5401 18.42 14.0001 19.14 14.0001 20C14.0001 21.1 14.9001 22 16.0001 22C16.8601 22 17.5801 21.46 17.8701 20.7L19.7801 22.61L21.1901 21.2L16.3901 16.4L10.6701 10.67ZM13.4701 5.03C13.7401 4.71 14.0501 4.31 14.4501 3.94C11.9901 2.75 9.13014 2.72 6.64014 3.81L10.8901 8.06L13.4701 5.03Z" fill="#323232"/>
</g>
<defs>
<clipPath id="clip0_147_6258">
<rect width="24" height="24" fill="white"/>
</clipPath>
</defs>
</svg>
