<svg width="24" height="24" viewBox="0 0 24 24" fill="none" xmlns="http://www.w3.org/2000/svg">
<g clip-path="url(#clip0_147_1959)">
<path d="M19.1 17H22V11C22 9.3 20.7 8 19 8H10L19.1 17ZM19 10C19.55 10 20 10.45 20 11C20 11.55 19.55 12 19 12C18.45 12 18 11.55 18 11C18 10.45 18.45 10 19 10ZM18 7V3H6V4.1L9 7H18ZM1.2 1.8L0 3L4.9 8C3.3 8.1 2 9.4 2 11V17H6V21H17.9L20.9 24L22.2 22.7L1.2 1.8ZM8 19V14H10.9L15.9 19H8Z" fill="#323232"/>
</g>
<defs>
<clipPath id="clip0_147_1959">
<rect width="24" height="24" fill="white"/>
</clipPath>
</defs>
</svg>
