<svg width="24" height="24" viewBox="0 0 24 24" fill="none" xmlns="http://www.w3.org/2000/svg">
<g clip-path="url(#clip0_147_4595)">
<path d="M17.66 9.53L10.59 16.6L6.35 12.36L7.76 10.95L10.59 13.78L16.25 8.12L17.66 9.53ZM4 12C4 9.67 5.02 7.58 6.62 6.12L9 8.5V2.5H3L5.2 4.7C3.24 6.52 2 9.11 2 12C2 17.19 5.95 21.45 11 21.95V19.93C7.06 19.44 4 16.07 4 12ZM22 12C22 6.81 18.05 2.55 13 2.05V4.07C16.94 4.56 20 7.93 20 12C20 14.33 18.98 16.42 17.38 17.88L15 15.5V21.5H21L18.8 19.3C20.76 17.48 22 14.89 22 12Z" fill="#323232"/>
</g>
<defs>
<clipPath id="clip0_147_4595">
<rect width="24" height="24" fill="white"/>
</clipPath>
</defs>
</svg>
