<svg width="24" height="24" viewBox="0 0 24 24" fill="none" xmlns="http://www.w3.org/2000/svg">
<g clip-path="url(#clip0_147_4774)">
<path d="M10.54 11L10 10.46L7.54 8.00001L6 6.46001L2.38 2.84001L1.27 1.73001L0 3.00001L2.01 5.01001L2 22L6 18H15L20.73 23.73L22 22.46L17.54 18L10.54 11ZM8 14H6V12H8V14ZM6 11V9.00001L8 11H6ZM20 2.00001H4.08L10 7.92001V6.00001H18V8.00001H10.08L11.08 9.00001H18V11H13.08L20.07 17.99C21.14 17.95 22 17.08 22 16V4.00001C22 2.90001 21.1 2.00001 20 2.00001Z" fill="#323232"/>
</g>
<defs>
<clipPath id="clip0_147_4774">
<rect width="24" height="24" fill="white"/>
</clipPath>
</defs>
</svg>
