<svg width="24" height="24" viewBox="0 0 24 24" fill="none" xmlns="http://www.w3.org/2000/svg">
<g clip-path="url(#clip0_147_2026)">
<path d="M21.22 18.02L23.22 20.02H24V18.02H21.22ZM21.99 16.02L22 6.02C22 4.91 21.1 4.02 20 4.02H7.22L12.45 9.25C12.63 9.21 12.81 9.18 13 9.15V7.02L17 10.75L15.42 12.22L20.96 17.76C21.57 17.43 21.99 16.77 21.99 16.02ZM2.39 1.73L1.11 3L2.65 4.54C2.25 4.9 2 5.43 2 6.02V16.02C2 17.12 2.89 18.02 4 18.02H0V20.02H18.13L20.84 22.73L22.11 21.46L2.39 1.73ZM7 15.02C7.31 13.54 7.92 12.07 9.07 10.96L10.66 12.55C9.12 12.93 7.96 13.73 7 15.02Z" fill="#323232"/>
</g>
<defs>
<clipPath id="clip0_147_2026">
<rect width="24" height="24" fill="white"/>
</clipPath>
</defs>
</svg>
