<svg width="24" height="24" viewBox="0 0 24 24" fill="none" xmlns="http://www.w3.org/2000/svg">
<g clip-path="url(#clip0_147_3782)">
<path d="M5.00005 14.5H19V8.5H5.00005V14.5ZM11 0.550003V3.5H13V0.550003H11ZM19.04 3.05L17.25 4.84L18.66 6.25L20.46 4.46L19.04 3.05ZM13 22.45V19.5H11V22.45H13ZM20.4501 18.54L18.65 16.75L17.24 18.16L19.03 19.96L20.4501 18.54ZM3.55005 4.46L5.34005 6.25L6.75005 4.84L4.96005 3.05L3.55005 4.46ZM4.96005 19.95L6.75005 18.15L5.34005 16.74L3.55005 18.53L4.96005 19.95Z" fill="#323232"/>
</g>
<defs>
<clipPath id="clip0_147_3782">
<rect width="24" height="24" fill="white"/>
</clipPath>
</defs>
</svg>
