<svg width="16" height="16" viewBox="0 0 16 16" fill="none"
    xmlns="http://www.w3.org/2000/svg">
    <path d="M4.68421 4.77015H10.5789M4.68421 7.71752H9.10526M7.89242 13.3514L7.63158 13.6123L5.42105 11.4017H3.21053C2.62426 11.4017 2.062 11.1688 1.64745 10.7543C1.23289 10.3397 1 9.77747 1 9.1912V3.29646C1 2.7102 1.23289 2.14794 1.64745 1.73339C2.062 1.31883 2.62426 1.08594 3.21053 1.08594H12.0526C12.6389 1.08594 13.2012 1.31883 13.6157 1.73339C14.0303 2.14794 14.2632 2.7102 14.2632 3.29646V7.3491M12.7895 14.3491V9.92804M12.7895 9.92804L15 12.1386M12.7895 9.92804L10.5789 12.1386" stroke="#181D27" stroke-width="1.47368" stroke-linecap="round" stroke-linejoin="round"/>
</svg>
