<svg width="22" height="22" viewBox="0 0 22 22" fill="none" xmlns="http://www.w3.org/2000/svg">
<path d="M16.5 8.25H5.50001C3.47497 8.25 1.83334 9.89162 1.83334 11.9167V17.4167C1.83334 19.4417 3.47497 21.0833 5.50001 21.0833H16.5C18.5251 21.0833 20.1667 19.4417 20.1667 17.4167V11.9167C20.1667 9.89162 18.5251 8.25 16.5 8.25Z" stroke="#7A44FF" stroke-width="1.33" stroke-linecap="round" stroke-linejoin="round"/>
<path d="M11 4.58317C12.0125 4.58317 12.8334 3.76236 12.8334 2.74984C12.8334 1.73732 12.0125 0.916504 11 0.916504C9.9875 0.916504 9.16669 1.73732 9.16669 2.74984C9.16669 3.76236 9.9875 4.58317 11 4.58317Z" stroke="#7A44FF" stroke-width="1.33" stroke-linecap="round" stroke-linejoin="round"/>
<path d="M11 4.58301V8.24967M8.25 15.583V13.7497M13.75 13.7497V15.583" stroke="#7A44FF" stroke-width="1.33" stroke-linecap="round" stroke-linejoin="round"/>
</svg>
